<svg xmlns="http://www.w3.org/2000/svg" xmlns:xlink="http://www.w3.org/1999/xlink" xmlns:lucid="lucid" width="60" height="78.18"><g transform="translate(-1.4200425075409342 7.46420935369882)" lucid:page-tab-id="0_0"><path d="M36.95 3.54v56.18M25.95 3.54v56.18" stroke="#000" stroke-width="2" fill="none"/><path d="M31.42 40.5c-5.52 0-10-4.54-10-10.15 0-5.6 4.48-10.15 10-10.15s10 4.55 10 10.15c0 5.6-4.48 10.16-10 10.16z" stroke="#000" stroke-width="2" fill="#fff"/><use xlink:href="#a" transform="matrix(6.123233995736766e-17,1,-1,6.123233995736766e-17,41.42004250754093,20.20083840551341) translate(5.05412836349708 17.22014746720291)"/><defs><path d="M8-415h180v-181h130v181h180v130H318v180H188v-180H8v-130" id="b"/><use transform="matrix(0.021525184334003637,0,0,0.021525184334003637,0,0)" xlink:href="#b" id="a"/></defs></g></svg>