<svg xmlns="http://www.w3.org/2000/svg" xmlns:xlink="http://www.w3.org/1999/xlink" xmlns:lucid="lucid" width="78.18" height="60"><g transform="translate(8.154639695848894 1.400822844793339)" lucid:page-tab-id="0_0"><path d="M2.85 23.07h56.18M2.85 34.07h56.18" stroke="#000" stroke-width="2" fill="none"/><path d="M39.82 28.6c0 5.52-4.55 10-10.16 10-5.6 0-10.15-4.48-10.15-10s4.56-10 10.16-10c5.6 0 10.16 4.48 10.16 10z" stroke="#000" stroke-width="2" fill="#fff"/><use xlink:href="#a" transform="matrix(1,0,0,1,19.51040806336334,18.59917715520666) translate(5.05412836349708 17.22014746720291)"/><defs><path d="M8-415h180v-181h130v181h180v130H318v180H188v-180H8v-130" id="b"/><use transform="matrix(0.021525184334003637,0,0,0.021525184334003637,0,0)" xlink:href="#b" id="a"/></defs></g></svg>