<?xml version="1.0" encoding="iso-8859-1"?>
<!-- Generator: Adobe Illustrator 19.0.0, SVG Export Plug-In . SVG Version: 6.00 Build 0)  -->
<svg version="1.1" id="Layer_1" xmlns="http://www.w3.org/2000/svg" xmlns:xlink="http://www.w3.org/1999/xlink" x="0px" y="0px"
	 viewBox="0 0 512.001 512.001" style="enable-background:new 0 0 512.001 512.001;" xml:space="preserve">
<g>
	<g>
		<path d="M203.724,68.123H89.372c-4.791,0-8.672,3.882-8.672,8.672s3.882,8.672,8.672,8.672h114.352
			c2.026,0,3.675,1.649,3.675,3.675v80.465c0,2.026-1.649,3.675-3.675,3.675H21.021c-2.027,0-3.676-1.649-3.676-3.675V89.143
			c0-2.026,1.649-3.675,3.676-3.675h33.662c4.791,0,8.672-3.882,8.672-8.672s-3.882-8.672-8.672-8.672H21.021
			C9.43,68.123,0,77.553,0,89.143v80.465c0,11.59,9.43,21.018,21.021,21.018h182.704c11.59,0,21.018-9.429,21.02-21.018V89.143
			C224.744,77.552,215.314,68.123,203.724,68.123z"/>
	</g>
</g>
<g>
	<g>
		<path d="M215.288,208.267H78.837c-11.591,0-21.021,9.431-21.021,21.021v62.439c0,11.591,9.431,21.02,21.021,21.02h136.451
			c11.59,0,21.018-9.429,21.02-21.02v-62.439C236.307,217.697,226.877,208.267,215.288,208.267z M218.962,291.727
			c0,2.026-1.649,3.675-3.675,3.675H78.837c-2.027,0-3.676-1.649-3.676-3.675v-62.439c0-2.027,1.649-3.676,3.676-3.676h136.451
			c2.026,0,3.675,1.649,3.675,3.676V291.727z"/>
	</g>
</g>
<g>
	<g>
		<path d="M226.851,339.399H90.4c-11.591,0-21.021,9.431-21.021,21.021v62.439c0,11.591,9.43,21.02,21.021,21.02h136.451
			c11.59,0,21.018-9.429,21.02-21.02v-62.439C247.87,348.828,238.441,339.399,226.851,339.399z M230.526,422.86
			c0,2.026-1.649,3.675-3.675,3.675H90.4c-2.027,0-3.676-1.649-3.676-3.675v-62.439c0-2.027,1.649-3.676,3.676-3.676v0h136.451
			c2.026,0,3.675,1.649,3.675,3.676V422.86z"/>
	</g>
</g>
<g>
	<g>
		<path d="M490.98,68.123H308.277c-11.591,0-21.02,9.43-21.02,21.02v80.464c0,11.591,9.43,21.02,21.02,21.02h182.702
			c11.591,0,21.021-9.429,21.022-21.018V89.143C512.001,77.552,502.57,68.123,490.98,68.123z M494.656,169.608
			c0,2.026-1.649,3.675-3.676,3.675H308.277c-2.026,0-3.675-1.649-3.675-3.675V89.143c0-2.026,1.649-3.675,3.675-3.675H490.98
			c2.027,0,3.676,1.649,3.676,3.675V169.608z"/>
	</g>
</g>
<g>
	<g>
		<path d="M433.164,208.267H296.714c-11.591,0-21.02,9.431-21.02,21.021v62.439c0,11.591,9.43,21.02,21.02,21.02h136.45
			c11.591,0,21.021-9.429,21.022-21.02v-62.439C454.185,217.697,444.754,208.267,433.164,208.267z M436.84,291.727
			c0,2.026-1.649,3.675-3.676,3.675H296.714c-2.026,0-3.675-1.649-3.675-3.675v-62.439c0-2.027,1.649-3.676,3.675-3.676h136.451
			c2.027,0,3.676,1.649,3.676,3.676V291.727z"/>
	</g>
</g>
<g>
	<g>
		<path d="M421.601,339.399H285.15c-11.591,0-21.02,9.431-21.02,21.021v62.439c0,11.591,9.43,21.02,21.02,21.02h72.488
			c4.791,0,8.672-3.882,8.672-8.672s-3.882-8.672-8.672-8.672H285.15c-2.026,0-3.675-1.649-3.675-3.675v-62.439
			c0-2.027,1.649-3.676,3.675-3.676H421.6c2.027,0,3.676,1.649,3.676,3.676v62.439c0,2.026-1.649,3.675-3.676,3.675h-29.273
			c-4.791,0-8.672,3.882-8.672,8.672s3.882,8.672,8.672,8.672H421.6c11.591,0,21.021-9.429,21.022-21.02v-62.439
			C442.622,348.828,433.191,339.399,421.601,339.399z"/>
	</g>
</g>
<g>
</g>
<g>
</g>
<g>
</g>
<g>
</g>
<g>
</g>
<g>
</g>
<g>
</g>
<g>
</g>
<g>
</g>
<g>
</g>
<g>
</g>
<g>
</g>
<g>
</g>
<g>
</g>
<g>
</g>
</svg>
