<?xml version="1.0" encoding="iso-8859-1"?>
<!-- Generator: Adobe Illustrator 19.0.0, SVG Export Plug-In . SVG Version: 6.00 Build 0)  -->
<svg version="1.1" id="Capa_1" xmlns="http://www.w3.org/2000/svg" xmlns:xlink="http://www.w3.org/1999/xlink" x="0px" y="0px"
	 viewBox="0 0 382.29 382.29" style="enable-background:new 0 0 382.29 382.29;" xml:space="preserve">
<g>
	<g>
		<path d="M150.245,68.265H27.245C12.22,68.265,0,80.515,0,95.572s12.22,27.307,27.245,27.307h123.003
			c15.026,0,27.245-12.25,27.245-27.307S165.274,68.265,150.245,68.265z M150.245,109.225H27.245
			c-7.492,0-13.592-6.124-13.592-13.653c0-7.53,6.1-13.653,13.592-13.653h123.003c7.492,0,13.592,6.124,13.592,13.653
			C163.84,103.101,157.74,109.225,150.245,109.225z"/>
	</g>
</g>
<g>
	<g>
		<path d="M150.245,163.838H27.245C12.22,163.838,0,176.089,0,191.145s12.22,27.307,27.245,27.307h123.003
			c15.026,0,27.245-12.25,27.245-27.307S165.274,163.838,150.245,163.838z M150.245,204.798H27.245
			c-7.492,0-13.592-6.123-13.592-13.653c0-7.53,6.1-13.653,13.592-13.653h123.003c7.492,0,13.592,6.124,13.592,13.653
			C163.84,198.675,157.74,204.798,150.245,204.798z"/>
	</g>
</g>
<g>
	<g>
		<path d="M150.245,259.412H27.245C12.22,259.412,0,271.662,0,286.718c0,15.056,12.22,27.307,27.245,27.307h123.003
			c15.026,0,27.245-12.25,27.245-27.307C177.493,271.662,165.274,259.412,150.245,259.412z M150.245,300.372H27.245
			c-7.492,0-13.592-6.124-13.592-13.653c0-7.53,6.1-13.653,13.592-13.653h122.999c7.492,0,13.592,6.124,13.592,13.653
			C163.837,294.248,157.737,300.372,150.245,300.372z"/>
	</g>
</g>
<g>
	<g>
		<path d="M355.045,68.265H232.045c-15.025,0-27.245,12.25-27.245,27.307s12.22,27.307,27.245,27.307h123.003
			c15.026,0,27.242-12.25,27.242-27.307S370.07,68.265,355.045,68.265z M355.045,109.225H232.045
			c-7.492,0-13.592-6.124-13.592-13.653c0-7.53,6.1-13.653,13.592-13.653h122.999c7.492,0,13.592,6.124,13.592,13.653
			C368.637,103.101,362.537,109.225,355.045,109.225z"/>
	</g>
</g>
<g>
	<g>
		<path d="M355.045,163.838H232.045c-15.025,0-27.245,12.25-27.245,27.307s12.22,27.307,27.245,27.307h123.003
			c15.026,0,27.242-12.25,27.242-27.307S370.07,163.838,355.045,163.838z M355.045,204.798H232.045
			c-7.492,0-13.592-6.123-13.592-13.653c0-7.53,6.1-13.653,13.592-13.653h122.999c7.492,0,13.592,6.124,13.592,13.653
			C368.637,198.675,362.537,204.798,355.045,204.798z"/>
	</g>
</g>
<g>
	<g>
		<path d="M355.045,259.412H232.045c-15.025,0-27.245,12.25-27.245,27.307c0,15.056,12.22,27.307,27.245,27.307h123.003
			c15.026,0,27.242-12.25,27.242-27.307C382.29,271.662,370.07,259.412,355.045,259.412z M355.045,300.372H232.045
			c-7.492,0-13.592-6.124-13.592-13.653c0-7.53,6.1-13.653,13.592-13.653h122.999c7.492,0,13.592,6.124,13.592,13.653
			C368.637,294.248,362.537,300.372,355.045,300.372z"/>
	</g>
</g>
<g>
</g>
<g>
</g>
<g>
</g>
<g>
</g>
<g>
</g>
<g>
</g>
<g>
</g>
<g>
</g>
<g>
</g>
<g>
</g>
<g>
</g>
<g>
</g>
<g>
</g>
<g>
</g>
<g>
</g>
</svg>
