<?xml version="1.0" encoding="utf-8"?>
<svg version="1.1" id="Capa_1" x="0px" y="0px" viewBox="0 0 511.999 511.999" style="enable-background:new 0 0 511.999 511.999;" xmlns="http://www.w3.org/2000/svg">
  <g style="opacity: 0.75;">
    <g>
      <path d="M478.624,26.538H33.376C14.973,26.538,0,41.51,0,59.914v392.171c0,18.403,14.973,33.376,33.376,33.376h445.247 c18.404,0,33.376-14.973,33.376-33.376V59.914C512,41.51,497.027,26.538,478.624,26.538z M20,59.914 c0-7.375,6-13.376,13.376-13.376h445.247c7.376,0,13.376,6,13.376,13.376v42.239H20V59.914z M492,452.084 c0,7.375-6,13.376-13.376,13.376H33.376C26,465.46,20,459.46,20,452.084V122.152h472V452.084z"/>
    </g>
  </g>
  <g style="opacity: 0.75;">
    <g>
      <path d="M460.9,72.509c-0.13-0.64-0.32-1.27-0.57-1.87c-0.25-0.61-0.56-1.19-0.92-1.73c-0.37-0.55-0.79-1.06-1.25-1.52 c-0.46-0.46-0.97-0.88-1.52-1.24c-0.54-0.36-1.12-0.67-1.72-0.92c-0.61-0.25-1.24-0.44-1.87-0.57c-1.29-0.26-2.62-0.26-3.91,0 c-0.64,0.13-1.27,0.32-1.87,0.57c-0.61,0.25-1.19,0.56-1.73,0.92c-0.55,0.36-1.06,0.78-1.52,1.24c-0.46,0.46-0.88,0.97-1.24,1.52 c-0.36,0.54-0.67,1.12-0.92,1.73c-0.25,0.6-0.44,1.23-0.57,1.87s-0.2,1.3-0.2,1.95c0,0.66,0.07,1.31,0.2,1.96 c0.13,0.63,0.32,1.26,0.57,1.87c0.25,0.6,0.56,1.18,0.92,1.72c0.36,0.55,0.78,1.06,1.24,1.52c0.46,0.47,0.97,0.88,1.52,1.25 c0.54,0.36,1.12,0.67,1.73,0.92c0.6,0.25,1.23,0.44,1.87,0.57c0.64,0.13,1.3,0.19,1.95,0.19s1.31-0.06,1.96-0.19 c0.63-0.13,1.26-0.32,1.87-0.57c0.6-0.25,1.18-0.56,1.72-0.92c0.55-0.37,1.06-0.78,1.52-1.25c1.86-1.86,2.93-4.44,2.93-7.07 C461.09,73.809,461.03,73.149,460.9,72.509z"/>
    </g>
  </g>
  <g style="opacity: 0.75;">
    <g>
      <path d="M413.203,64.462H216.919c-5.523,0-10,4.477-10,10s4.477,10,10,10h196.284c5.523,0,10-4.477,10-10 S418.726,64.462,413.203,64.462z"/>
    </g>
  </g>
  <g style="opacity: 0.75;">
    <g>
      <path d="M107.62,72.509c-0.13-0.64-0.32-1.27-0.57-1.87c-0.25-0.6-0.56-1.19-0.92-1.73c-0.37-0.55-0.78-1.06-1.24-1.52 c-0.47-0.46-0.98-0.88-1.52-1.24c-0.55-0.36-1.13-0.67-1.73-0.92s-1.23-0.44-1.87-0.57c-1.29-0.26-2.62-0.26-3.91,0 c-0.64,0.13-1.27,0.32-1.87,0.57c-0.6,0.25-1.18,0.56-1.73,0.92c-0.54,0.36-1.06,0.78-1.52,1.24c-0.46,0.46-0.88,0.97-1.24,1.52 c-0.36,0.54-0.67,1.13-0.92,1.73c-0.25,0.6-0.44,1.23-0.57,1.87s-0.2,1.3-0.2,1.95c0,0.66,0.07,1.31,0.2,1.96 c0.13,0.63,0.32,1.26,0.57,1.87c0.25,0.6,0.56,1.18,0.92,1.72c0.36,0.55,0.78,1.06,1.24,1.52c0.46,0.46,0.98,0.88,1.52,1.25 c0.55,0.36,1.13,0.67,1.73,0.92c0.6,0.25,1.23,0.44,1.87,0.57c0.65,0.13,1.3,0.19,1.95,0.19c0.66,0,1.31-0.06,1.96-0.19 c0.64-0.13,1.27-0.32,1.87-0.57c0.6-0.25,1.18-0.56,1.73-0.92c0.54-0.37,1.05-0.79,1.52-1.25c0.46-0.46,0.87-0.97,1.24-1.52 c0.36-0.54,0.67-1.12,0.92-1.72c0.25-0.61,0.44-1.24,0.57-1.87c0.13-0.65,0.19-1.3,0.19-1.96 C107.81,73.809,107.75,73.149,107.62,72.509z"/>
    </g>
  </g>
  <g style="opacity: 0.75;">
    <g>
      <path d="M144.52,72.509c-0.12-0.64-0.32-1.27-0.57-1.87c-0.25-0.61-0.56-1.19-0.92-1.73c-0.36-0.55-0.78-1.06-1.24-1.52 c-0.46-0.46-0.97-0.88-1.52-1.24c-0.54-0.36-1.12-0.67-1.73-0.92c-0.6-0.25-1.23-0.44-1.87-0.57c-1.29-0.26-2.62-0.26-3.9,0 c-0.64,0.13-1.27,0.32-1.87,0.57c-0.61,0.25-1.19,0.56-1.73,0.92c-0.55,0.36-1.06,0.78-1.52,1.24c-0.46,0.46-0.88,0.97-1.24,1.52 c-0.37,0.54-0.67,1.12-0.92,1.73c-0.25,0.6-0.45,1.23-0.57,1.87c-0.13,0.64-0.2,1.3-0.2,1.95c0,0.65,0.07,1.31,0.2,1.96 c0.12,0.63,0.32,1.26,0.57,1.87c0.25,0.6,0.55,1.18,0.92,1.72c0.36,0.55,0.78,1.06,1.24,1.52c0.46,0.47,0.97,0.88,1.52,1.25 c0.54,0.36,1.12,0.67,1.73,0.92c0.6,0.25,1.23,0.44,1.87,0.57c0.64,0.13,1.3,0.19,1.95,0.19c0.65,0,1.31-0.06,1.95-0.19 c0.64-0.13,1.27-0.32,1.87-0.57c0.61-0.25,1.19-0.56,1.73-0.92c0.55-0.37,1.06-0.78,1.52-1.25c0.46-0.46,0.88-0.97,1.24-1.52 c0.36-0.54,0.67-1.12,0.92-1.72c0.25-0.61,0.45-1.24,0.57-1.87c0.13-0.65,0.2-1.31,0.2-1.96 C144.72,73.809,144.65,73.149,144.52,72.509z"/>
    </g>
  </g>
  <g style="opacity: 0.75;">
    <g>
      <path d="M70.71,72.509c-0.13-0.64-0.32-1.27-0.57-1.87c-0.25-0.61-0.56-1.19-0.92-1.73c-0.36-0.55-0.78-1.06-1.24-1.52 c-2.32-2.32-5.77-3.39-9.03-2.73c-0.63,0.13-1.26,0.32-1.87,0.57c-0.6,0.25-1.18,0.56-1.72,0.92c-0.55,0.36-1.06,0.78-1.52,1.24 c-0.46,0.46-0.88,0.97-1.25,1.52c-0.36,0.54-0.67,1.12-0.92,1.73c-0.25,0.6-0.44,1.23-0.57,1.87c-0.13,0.64-0.19,1.3-0.19,1.95 c0,2.64,1.07,5.21,2.93,7.07c1.86,1.87,4.44,2.93,7.07,2.93s5.21-1.06,7.07-2.93c1.86-1.86,2.93-4.43,2.93-7.07 C70.91,73.809,70.84,73.149,70.71,72.509z"/>
    </g>
  </g>
  <g style="opacity: 0.75;">
    <g>
      <path d="M459.184,144.383H52.815c-5.523,0-10,4.477-10,10v277.673c0,5.523,4.477,10,10,10h406.369c5.523,0,10-4.477,10-10V154.383 C469.184,148.86,464.707,144.383,459.184,144.383z M449.184,422.056H62.815V164.383h386.369V422.056z"/>
    </g>
  </g>
  <g style="opacity: 0.75;">
    <g>
      <path d="M421.497,179.243H93.815c-5.523,0-10,4.477-10,10v83.671c0,5.523,4.477,10,10,10h327.682c5.523,0,10-4.477,10-10v-83.671 C431.497,183.72,427.02,179.243,421.497,179.243z M411.497,262.913H103.815v-63.671h307.682V262.913z"/>
    </g>
  </g>
  <g style="opacity: 0.75;">
    <g>
      <path d="M421.816,301.999H94.134c-5.523,0-10,4.477-10,10s4.477,10,10,10h327.682c5.523,0,10-4.477,10-10 S427.339,301.999,421.816,301.999z"/>
    </g>
  </g>
  <g style="opacity: 0.75;">
    <g>
      <path d="M421.816,379.999H94.134c-5.523,0-10,4.477-10,10s4.477,10,10,10h327.682c5.523,0,10-4.477,10-10 S427.339,379.999,421.816,379.999z"/>
    </g>
  </g>
  <g style="opacity: 0.75;">
    <g>
      <path d="M104.89,349.049c-0.12-0.64-0.32-1.27-0.56-1.87c-0.25-0.61-0.56-1.19-0.92-1.73c-0.37-0.55-0.79-1.06-1.25-1.52 c-0.46-0.46-0.97-0.88-1.52-1.24c-0.54-0.36-1.12-0.67-1.72-0.92c-0.61-0.25-1.24-0.45-1.87-0.57c-1.29-0.26-2.62-0.26-3.91,0 c-0.64,0.12-1.27,0.32-1.87,0.57c-0.61,0.25-1.19,0.56-1.73,0.92c-0.55,0.36-1.06,0.78-1.52,1.24c-0.46,0.46-0.88,0.97-1.24,1.52 c-0.36,0.54-0.67,1.12-0.92,1.73c-0.25,0.6-0.44,1.23-0.57,1.87c-0.13,0.64-0.2,1.3-0.2,1.95s0.07,1.31,0.2,1.95 s0.32,1.27,0.57,1.88c0.25,0.6,0.56,1.18,0.92,1.72c0.36,0.55,0.78,1.06,1.24,1.52c0.46,0.46,0.97,0.88,1.52,1.24 c0.54,0.36,1.12,0.67,1.73,0.92c0.6,0.25,1.23,0.45,1.87,0.57c0.64,0.13,1.3,0.2,1.95,0.2c0.65,0,1.31-0.07,1.96-0.2 c0.63-0.12,1.26-0.32,1.87-0.57c0.6-0.25,1.18-0.56,1.72-0.92c0.55-0.36,1.06-0.78,1.52-1.24c0.46-0.46,0.88-0.97,1.25-1.52 c0.36-0.54,0.67-1.12,0.92-1.72c0.24-0.61,0.44-1.24,0.56-1.88c0.13-0.64,0.2-1.3,0.2-1.95 C105.09,350.349,105.02,349.689,104.89,349.049z"/>
    </g>
  </g>
  <g style="opacity: 0.75;">
    <g>
      <path d="M420.859,340.999H133.092c-5.523,0-10,4.477-10,10s4.477,10,10,10h287.767c5.523,0,10-4.477,10-10 S426.382,340.999,420.859,340.999z"/>
    </g>
  </g>
  <g style="opacity: 0.75;"/>
  <g style="opacity: 0.75;"/>
  <g style="opacity: 0.75;"/>
  <g style="opacity: 0.75;"/>
  <g style="opacity: 0.75;"/>
  <g style="opacity: 0.75;"/>
  <g style="opacity: 0.75;"/>
  <g style="opacity: 0.75;"/>
  <g style="opacity: 0.75;"/>
  <g style="opacity: 0.75;"/>
  <g style="opacity: 0.75;"/>
  <g style="opacity: 0.75;"/>
  <g style="opacity: 0.75;"/>
  <g style="opacity: 0.75;"/>
  <g style="opacity: 0.75;"/>
</svg>