<?xml version="1.0" encoding="utf-8"?>
<svg height="512pt" viewBox="-46 0 512 512.001" width="512pt" xmlns="http://www.w3.org/2000/svg">
  <path d="m58.121094 215.140625c-14.707032 25.609375-23.121094 55.269531-23.121094 86.859375 0 31.59375 8.417969 61.261719 23.125 86.875.101562.210938.203125.421875.320312.625.117188.199219.253907.378906.378907.566406 15.195312 25.980469 36.890625 47.710938 62.84375 62.949219.265625.191406.542969.371094.832031.539063.148438.085937.304688.148437.457031.226562 25.652344 14.765625 55.378907 23.21875 87.042969 23.21875 31.660156 0 61.386719-8.453125 87.039062-23.21875.152344-.078125.3125-.140625.460938-.226562.292969-.167969.570312-.351563.839844-.542969 25.945312-15.238281 47.636718-36.964844 62.828125-62.9375.128906-.191407.269531-.371094.386719-.574219.121093-.210938.222656-.429688.328124-.644531 14.703126-25.609375 23.117188-55.269531 23.117188-86.855469s-8.414062-61.242188-23.113281-86.851562c-.105469-.21875-.210938-.4375-.332031-.648438-.167969-.289062-.351563-.570312-.542969-.835938-15.183594-25.859374-36.816407-47.492187-62.675781-62.675781-.269532-.191406-.546876-.375-.839844-.542969-.210938-.125-.429688-.226562-.648438-.332031-25.609375-14.699219-55.265625-23.113281-86.847656-23.113281-31.59375 0-61.253906 8.414062-86.863281 23.121094-.214844.101562-.429688.203125-.636719.324218-.289062.167969-.5625.347657-.824219.535157-25.871093 15.1875-47.507812 36.824219-62.695312 62.695312-.1875.265625-.367188.539063-.535157.824219-.121093.210938-.222656.425781-.324218.640625zm65.90625-42.046875 1.925781 3.335938c1.855469 3.207031 5.214844 5.003906 8.671875 5.003906 1.695312 0 3.414062-.433594 4.988281-1.34375 4.785157-2.761719 6.421875-8.878906 3.660157-13.660156l-1.941407-3.359376c17.886719-8.878906 37.714844-14.398437 58.667969-15.738281v3.898438c0 5.523437 4.476562 10 10 10 5.519531 0 10-4.476563 10-10v-3.898438c20.949219 1.339844 40.777344 6.859375 58.664062 15.738281l-1.941406 3.359376c-2.761718 4.78125-1.121094 10.898437 3.660156 13.660156 1.574219.910156 3.296876 1.34375 4.992188 1.34375 3.453125 0 6.816406-1.796875 8.667969-5.003906l1.925781-3.335938c16.972656 11.355469 31.582031 25.964844 42.9375 42.9375l-3.335938 1.925781c-4.785156 2.757813-6.421874 8.875-3.660156 13.660157 1.851563 3.207031 5.210938 5 8.667969 5 1.699219 0 3.417969-.433594 4.992187-1.339844l3.359376-1.941406c8.878906 17.882812 14.394531 37.714843 15.738281 58.664062h-3.898438c-5.523437 0-10 4.476562-10 10s4.476563 10 10 10h3.898438c-1.34375 20.953125-6.859375 40.78125-15.738281 58.667969l-3.359376-1.941407c-4.785156-2.761718-10.898437-1.121093-13.660156 3.660157-2.761718 4.785156-1.125 10.898437 3.660156 13.660156l3.335938 1.925781c-11.355469 16.96875-25.964844 31.582032-42.9375 42.9375l-1.925781-3.335937c-2.757813-4.78125-8.871094-6.421875-13.660157-3.660157-4.78125 2.761719-6.421874 8.875-3.660156 13.660157l1.941406 3.359375c-17.886718 8.875-37.714843 14.398437-58.664062 15.738281v-3.898437c0-5.523438-4.480469-10-10-10-5.523438 0-10 4.476562-10 10v3.898437c-20.953125-1.339844-40.78125-6.859375-58.667969-15.738281l1.941407-3.359375c2.761718-4.78125 1.121093-10.898438-3.660157-13.660157-4.785156-2.765624-10.898437-1.121093-13.660156 3.660157l-1.925781 3.335937c-16.96875-11.355468-31.582032-25.964844-42.9375-42.933594l3.339844-1.925781c4.78125-2.761719 6.421874-8.878906 3.660156-13.660156-2.761719-4.785156-8.878906-6.421875-13.660156-3.660156l-3.363282 1.941406c-8.875-17.886719-14.394531-37.714844-15.738281-58.667969h3.898437c5.523438 0 10-4.476562 10-10 0-5.523437-4.476562-10-10-10h-3.898437c1.34375-20.949218 6.859375-40.78125 15.738281-58.664062l3.359375 1.941406c1.578125.90625 3.296875 1.339844 4.992188 1.339844 3.457031 0 6.816406-1.792969 8.667969-5.003906 2.761718-4.78125 1.125-10.898438-3.660157-13.660157l-3.335937-1.925781c11.359375-16.972656 25.96875-31.582031 42.9375-42.9375zm0 0" style="opacity: 0.75;"/>
  <path d="m176.222656 328h7.777344v8.105469c0 14.335937 11.664062 26 26 26 12.464844 0 22.902344-8.816407 25.417969-20.542969l31.300781 31.300781c1.953125 1.953125 4.511719 2.929688 7.070312 2.929688 2.5625 0 5.121094-.976563 7.074219-2.929688 3.902344-3.902343 3.902344-10.234375 0-14.140625l-30.71875-30.722656h34.578125c14.335938 0 26-11.664062 26-26s-11.664062-26-26-26h-48.722656v-77.519531c0-14.335938-11.664062-26-26-26s-26 11.664062-26 26v77.519531h-7.777344c-14.335937 0-26 11.664062-26 26 0 14.339844 11.664063 26 26 26zm108.5-32c3.253906 0 6 2.75 6 6 0 3.253906-2.746094 6-6 6h-48.722656v-12zm-80.722656-97.519531c0-3.25 2.746094-6 6-6s6 2.75 6 6v137.625c0 3.25-2.746094 6-6 6s-6-2.75-6-6zm-27.777344 97.519531h7.777344v12h-7.777344c-3.253906 0-6-2.746094-6-6 0-3.25 2.746094-6 6-6zm0 0" style="opacity: 0.75;"/>
  <path d="m78.40625 302c0 5.507812 4.492188 10 10 10s10-4.492188 10-10-4.492188-10-10-10-10 4.492188-10 10zm0 0" style="opacity: 0.75;"/>
  <path d="m220 423.59375c0 5.523438-4.476562 10-10 10s-10-4.476562-10-10c0-5.519531 4.476562-10 10-10s10 4.480469 10 10zm0 0" style="opacity: 0.75;"/>
  <path d="m341.59375 302c0 5.523438-4.476562 10-10 10s-10-4.476562-10-10c0-5.519531 4.476562-10 10-10s10 4.480469 10 10zm0 0" style="opacity: 0.75;"/>
  <path d="m378 92h-109.109375l-29.515625-51.117188c1.046875-3.109374 1.625-6.429687 1.625-9.882812 0-17.09375-13.90625-31-31-31s-31 13.90625-31 31c0 3.453125.574219 6.777344 1.625 9.882812l-29.515625 51.117188h-40.144531c-5.523438 0-10 4.480469-10 10 0 5.523438 4.476562 10 10 10h267.035156c12.128906 0 22 9.871094 22 22v336c0 12.132812-9.871094 22-22 22h-336c-12.128906 0-22-9.867188-22-22v-336c0-12.128906 9.871094-22 22-22 5.519531 0 10-4.476562 10-10 0-5.519531-4.480469-10-10-10-23.160156 0-42 18.84375-42 42v336c0 23.160156 18.839844 42 42 42h336c23.15625 0 42-18.839844 42-42v-336c0-23.15625-18.84375-42-42-42zm-168-72c6.0625 0 11 4.933594 11 11s-4.9375 11-11 11c-6.066406 0-11-4.933594-11-11s4.933594-11 11-11zm-15.925781 37.585938c4.65625 2.800781 10.105469 4.414062 15.925781 4.414062s11.265625-1.613281 15.925781-4.417969l19.871094 34.417969h-71.59375zm0 0" style="opacity: 0.75;"/>
  <path d="m70.730469 112h.269531c5.519531 0 10-4.476562 10-10 0-5.519531-4.480469-10-10-10h-.269531c-5.523438 0-10 4.480469-10 10 0 5.523438 4.476562 10 10 10zm0 0" style="opacity: 0.75;"/>
  <path d="m369.761719 472c0 5.523438 4.476562 10 10 10h.234375c5.523437 0 10-4.476562 10-10s-4.476563-10-10-10h-.234375c-5.523438 0-10 4.476562-10 10zm0 0" style="opacity: 0.75;"/>
  <path d="m309.996094 462c-5.519532 0-10 4.476562-10 10 0 5.519531 4.480468 10 10 10h41.035156c5.523438 0 10-4.480469 10-10 0-5.523438-4.476562-10-10-10zm0 0" style="opacity: 0.75;"/>
</svg>