<?xml version="1.0" encoding="utf-8"?>
<svg height="505pt" viewBox="0 -76 505.363 505" width="505pt" xmlns="http://www.w3.org/2000/svg">
  <path d="m323.726562 76.515625h-268.933593c-5.519531 0-9.992188 4.472656-9.992188 9.992187v182.070313c0 5.519531 4.472657 9.992187 9.992188 9.992187h14.519531c5.519531 0 9.992188-4.472656 9.992188-9.992187s-4.472657-9.992187-9.992188-9.992187h-4.527344v-162.085938h248.949219v162.085938h-163.628906c-5.519531 0-9.992188 4.472656-9.992188 9.992187s4.472657 9.992187 9.992188 9.992187h173.621093c5.519532 0 9.992188-4.472656 9.992188-9.992187v-182.070313c0-5.519531-4.476562-9.992187-9.992188-9.992187zm0 0" style="opacity: 0.75;"/>
  <path d="m94.789062 169.808594c5.863282 5.078125 14.667969 6.050781 22.003907 4.265625 3.507812-.855469 6.886719-2.542969 9.429687-5.144531 2.394532-2.453126 3.816406-5.644532 4.496094-8.972657.804688-3.949219.554688-8.109375.554688-12.121093 0-4.378907 0-8.753907 0-13.128907 0-5.433593-.703126-11.066406-4.359376-15.355469-5.019531-5.890624-13.59375-7.378906-20.921874-6.417968-7.121094.929687-13.535157 4.96875-15.902344 11.96875-1.433594 4.242187-1.261719 8.699218-1.261719 13.105468v13.628907c0 5.019531.21875 10.117187 2.902344 14.535156.828125 1.359375 1.855469 2.59375 3.058593 3.636719zm19.46875-30.808594c-.011718 4.558594.023438 9.117188.023438 13.671875 0 1.589844.164062 3.390625-.605469 4.84375-.761719 1.433594-2.445312 1.984375-3.992187 1.859375-4.621094-.371094-3.863282-5.578125-3.863282-8.90625 0-5.050781.050782-10.105469-.070312-15.152344-.070312-2.945312.003906-6.960937 3.867188-7.101562 2.078124-.074219 3.824218.664062 4.402343 2.792968.667969 2.480469.246094 5.449219.238281 7.992188zm0 0" style="opacity: 0.75;"/>
  <path d="m206.746094 169.808594c5.859375 5.078125 14.664062 6.050781 22 4.265625 3.511718-.855469 6.890625-2.542969 9.433594-5.144531 2.390624-2.453126 3.8125-5.644532 4.492187-8.972657.804687-3.949219.554687-8.109375.554687-12.121093 0-4.378907 0-8.753907 0-13.128907 0-5.433593-.699218-11.066406-4.355468-15.355469-5.019532-5.890624-13.597656-7.378906-20.921875-6.417968-7.121094.929687-13.535157 4.96875-15.902344 11.96875-1.433594 4.242187-1.261719 8.699218-1.261719 13.105468v13.628907c0 5.019531.214844 10.117187 2.902344 14.535156.824219 1.359375 1.855469 2.59375 3.058594 3.636719zm19.480468-30.808594c.007813 4.890625.015626 9.78125.019532 14.671875.003906 1.191406-.003906 2.429687-.515625 3.503906-.675781 1.417969-2.238281 2.355469-3.808594 2.304688s-3.0625-1.074219-3.695313-2.511719c-.472656-1.078125-.476562-2.292969-.476562-3.46875.007812-6.65625.011719-13.3125.019531-19.96875 0-1.148438.011719-2.339844.488281-3.390625.816407-1.789063 2.695313-2.035156 4.4375-1.890625 2.914063.238281 3.519532 2.804688 3.523438 5.308594.003906 1.816406.003906 3.628906.007812 5.441406zm0 0" style="opacity: 0.75;"/>
  <path d="m253.046875 169.808594c5.859375 5.078125 14.664063 6.050781 22 4.265625 3.507813-.855469 6.890625-2.542969 9.429687-5.144531 2.394532-2.453126 3.816407-5.644532 4.496094-8.972657.804688-3.949219.554688-8.109375.554688-12.121093 0-4.378907 0-8.753907 0-13.128907 0-5.433593-.699219-11.066406-4.355469-15.355469-5.019531-5.890624-13.597656-7.378906-20.921875-6.417968-7.125.929687-13.539062 4.96875-15.902344 11.96875-1.433594 4.242187-1.261718 8.699218-1.261718 13.105468v13.628907c0 5.019531.214843 10.117187 2.902343 14.535156.824219 1.359375 1.855469 2.59375 3.058594 3.636719zm19.488281-30.808594v13.671875c0 2.109375.234375 5.074219-1.941406 6.195313-2.15625 1.109374-5.351562.464843-6.152344-1.964844-.640625-1.941406-.367187-4.402344-.367187-6.433594 0-2.878906 0-5.757812 0-8.632812 0-1.460938 0-2.917969 0-4.375 0-2.429688-.652344-6.445313 1.207031-8.3125.949219-.953126 2.453125-1 3.714844-.898438 1.554687.128906 2.679687.90625 3.175781 2.417969.484375 1.464843.363281 3.082031.363281 4.609375zm0 0" style="opacity: 0.75;"/>
  <path d="m141.484375 163.019531c-2.609375 4.890625 1.304687 9.90625 6.011719 11.34375 3.230468.984375 7.175781.621094 8.917968-2.597656 1.730469-3.203125 3.351563-6.472656 5.027344-9.707031 4.296875-8.300782 8.597656-16.605469 12.894532-24.90625 1.523437-2.9375 2.761718-5.910156 2.761718-9.253906 0-2.6875 0-5.375 0-8.0625 0-.96875.003906-1.894532-.390625-2.8125-1.734375-4.03125-6.519531-4.339844-10.304687-4.339844-5.652344 0-11.300782 0-16.953125 0-4.589844 0-10.929688-1.027344-14.058594 3.179687-1.386719 1.863281-1.042969 4.269531-1.042969 6.453125v7.988282c0 .945312.050782 1.847656.449219 2.726562.941406 2.074219 3.171875 3.324219 5.308594 3.824219 4.03125.941406 10.855469-.492188 11.222656-5.578125.070313-1.011719.011719-2.039063.011719-3.050782h8.765625v2.265626zm0 0" style="opacity: 0.75;"/>
  <path d="m187.902344 153.585938c3.523437 0 6.785156-2.363282 7.957031-5.683594 1.1875-3.371094.03125-7.101563-2.695313-9.359375-2.691406-2.222657-6.652343-2.515625-9.65625-.722657-3.023437 1.804688-4.578124 5.351563-3.972656 8.804688.699219 3.976562 4.355469 6.960938 8.367188 6.960938zm0 0" style="opacity: 0.75;"/>
  <path d="m181.875 172.304688c2.488281 2.535156 6.4375 3.28125 9.644531 1.703124 3.195313-1.574218 5.121094-5.019531 4.753907-8.554687-.351563-3.410156-2.960938-6.429687-6.28125-7.292969-3.433594-.890625-7.121094.492188-9.132813 3.40625-2.292969 3.320313-1.785156 7.890625 1.015625 10.738282zm0 0" style="opacity: 0.75;"/>
  <path d="m124.738281 210.101562c-4.011719-2.945312-8.441406-4.976562-12.984375-6.9375-1.144531-.496093-3.953125-1.632812-4.066406-3.125-.097656-1.265624 1.796875-1.835937 2.746094-2.015624 2.101562-.40625 4.414062-.253907 6.449218.40625 1.792969.585937 3.390626 1.65625 5.21875 2.144531 3.621094.964843 6.492188-1.757813 7.777344-4.894531.796875-1.949219 1.109375-4.191407.414063-6.21875-.691407-2.023438-2.296875-3.535157-4.125-4.5625-2-1.121094-4.273438-1.617188-6.511719-2.023438-2.40625-.4375-4.867188-.632812-7.3125-.59375-7.96875.125-17.113281 3.472656-20.316406 11.390625-1.539063 3.800781-1.757813 8.320313-.761719 12.28125 1.046875 4.171875 3.773437 7.828125 7.226563 10.347656 3.964843 2.894531 8.789062 4.269531 12.953124 6.792969 1.355469.824219 3.414063 1.925781 3.609376 3.6875.222656 2.003906-2.167969 2.628906-3.738282 2.816406-2.304687.273438-4.59375-.320312-6.523437-1.605468-1.855469-1.234376-3.242188-2.976563-5.359375-3.859376-4.019532-1.683593-7.691406 1.175782-9.304688 4.789063-3.882812 8.699219 6.617188 14.222656 13.582032 15.648437 8.238281 1.683594 18.121093.421876 23.976562-6.171874 5.625-6.332032 5.695312-16.671876 1.277344-23.660157-1.121094-1.777343-2.527344-3.386719-4.226563-4.636719zm0 0" style="opacity: 0.75;"/>
  <path d="m149.507812 240.339844 2.113282-7.847656h12.398437c.707031 2.613281 1.351563 5.25 2.117188 7.847656 1.617187 5.484375 8.910156 4.578125 12.792969 2.277344 2.585937-1.535157 4.25-4.058594 3.5-7.09375-2.277344-7.5-4.554688-14.996094-6.832032-22.496094-2.511718-8.265625-4.898437-16.582032-7.539062-24.804688-1.042969-3.246094-3.988282-5.011718-7.203125-5.652344-3.015625-.601562-6.449219-.421874-9.226563.976563-4.0625 2.042969-4.796875 6.910156-5.988281 10.851563-3.1875 10.539062-6.371094 21.078124-9.558594 31.617187-.917969 3.042969-1.878906 6.074219-2.757812 9.125-.65625 2.273437-.160157 4.417969 1.558593 6.097656 2.949219 2.886719 9.085938 4.636719 12.695313 1.96875.953125-.707031 1.617187-1.730469 1.929687-2.867187zm5.925782-22.152344 2.351562-8.703125 2.351563 8.703125zm0 0" style="opacity: 0.75;"/>
  <path d="m177.582031 190.441406c0 2.460938.761719 5.207032 2.804688 6.753906 1.238281.9375 2.640625 1.09375 4.128906 1.09375h7.292969v16.472657c0 7.800781-.171875 15.625 0 23.421875.074218 3.316406 2.714844 5.289062 5.746094 5.964844 3.261718.726562 7.683593.273437 9.976562-2.4375.972656-1.148438 1.265625-2.523438 1.269531-3.980469.015625-6.597657 0-13.195313 0-19.792969 0-6.433594 0-12.867188 0-19.300781 0-.117188 0-.230469 0-.347657h6.15625c2.894531 0 5.414063-.304687 6.957031-3.109374 1.902344-3.464844 1.601563-9.417969-2.09375-11.652344-1.328124-.804688-2.753906-.78125-4.226562-.78125-9.214844 0-18.429688 0-27.644531 0-1.371094 0-2.742188-.023438-4.113281 0-4.183594.0625-6.253907 3.859375-6.253907 7.695312zm0 0" style="opacity: 0.75;"/>
  <path d="m263.894531 229.355469c-1.089843 0-2.257812-.144531-3.21875-.695313-1.160156-.671875-.898437-1.675781-1.058593-2.832031-.289063-2.035156-1.410157-3.910156-3.296876-4.816406-2.023437-.972657-4.601562-1.039063-6.789062-.800781-2.03125.226562-4.121094.972656-5.394531 2.65625-2.554688 3.378906-1.5 8.867187.40625 12.292968 2.1875 3.929688 6 6.824219 10.203125 8.289063 8.371094 2.921875 19.867187 1.976562 26.09375-4.925781 2.949218-3.273438 4.214844-7.636719 4.480468-11.957032.242188-3.855468.117188-7.90625-1.214843-11.566406-3.25-8.933594-13.6875-11.976562-22.378907-11.253906.128907-1.808594.261719-3.613282.394532-5.421875.019531-.289063 15.195312.1875 16.636718-.394531 3.578126-1.4375 4.339844-6.484376 3.609376-9.777344-.660157-2.984375-2.683594-5.363282-5.878907-5.410156-7.726562-.097657-15.457031 0-23.183593 0-.917969 0-1.847657-.0625-2.714844.296874-3.328125 1.378907-3.304688 5.808594-3.5 8.820313-.316406 4.910156-.976563 9.8125-1.496094 14.707031-.144531 1.339844-.324219 2.6875-.347656 4.039063-.0625 3.628906 1.777344 6.722656 5.539062 7.273437 1.6875.25 3.480469.109375 5.179688.109375h6.878906c2.175781 0 4.464844.140625 5.230469 2.585938.386719 1.246093.324219 2.589843.316406 3.878906-.007813 1.242187-.070313 2.679687-.902344 3.683594-.863281 1.042969-2.324219 1.21875-3.59375 1.21875zm0 0" style="opacity: 0.75;"/>
  <path d="m119.347656 265.171875c-1.832031-5.207031-7.535156-7.9375-12.742187-6.105469-5.207031 1.832032-7.9375 7.539063-6.105469 12.746094l.0625.171875c1.445312 4.105469 5.300781 6.675781 9.421875 6.675781 1.101563 0 2.222656-.183594 3.320313-.570312 5.207031-1.835938 7.941406-7.542969 6.105468-12.746094zm0 0" style="opacity: 0.75;"/>
  <path d="m505 177.347656c0-.066406-.007812-.128906-.011719-.195312-.191406-37.449219-28.203125-68.425782-64.382812-73.308594v-47.089844c0-11.019531-8.964844-19.988281-19.984375-19.988281h-228.0625v-16.652344c0-11.019531-8.964844-19.988281-19.984375-19.988281h-94.597657c-11.023437 0-19.988281 8.96875-19.988281 19.988281v16.652344h-38.003906c-11.019531 0-19.984375 8.96875-19.984375 19.988281v241.125c0 11.019532 8.964844 19.984375 19.984375 19.984375h53.992187v15.355469h-30.058593c-5.515625 0-9.992188 4.476562-9.992188 9.996094 0 5.515625 4.476563 9.992187 9.992188 9.992187h349.699219c5.519531 0 9.996093-4.476562 9.996093-9.992187 0-5.519532-4.476562-9.996094-9.996093-9.996094h-16.523438v-15.355469h43.527344c11.019531 0 19.984375-8.964843 19.984375-19.984375v-46.640625c36.308593-4.898437 64.394531-36.070312 64.394531-73.695312 0-.042969-.003906-.085938-.003906-.128907 0-.023437.003906-.042968.003906-.066406zm-332.425781-140.582031h-37.304688v-16.652344h37.304688zm-94.597657-16.652344h37.304688v16.652344h-37.304688zm279.128907 313.105469h-263.140625v-15.355469h263.140625zm-337.121094-35.339844v-241.125h400.632813v47.089844c-36.304688 4.898438-64.390626 36.070312-64.390626 73.699219 0 37.625 28.085938 68.796875 64.390626 73.695312v46.640625zm420.621094-66.871094v-2.179687c0-5.519531-4.472657-9.992187-9.992188-9.992187s-9.992187 4.472656-9.992187 9.992187v2.179687c-22.074219-4.117187-39.488282-21.597656-43.515625-43.699218h2.367187c5.519532 0 9.992188-4.472656 9.992188-9.992188 0-5.519531-4.472656-9.992187-9.992188-9.992187h-2.285156c4.179688-21.890625 21.511719-39.160157 43.433594-43.25v2.179687c0 5.519532 4.472656 9.992188 9.992187 9.992188s9.992188-4.472656 9.992188-9.992188v-2.179687c21.933593 4.089843 39.269531 21.375 43.4375 43.28125h-2.140625c-5.519532 0-9.996094 4.472656-9.996094 9.992187 0 5.519532 4.476562 9.992188 9.996094 9.992188h2.210937c-4.035156 22.089844-21.445312 39.554687-43.507812 43.667968zm0 0" style="opacity: 0.75;"/>
  <path d="m430.757812 153.71875c-5.515624 0-9.992187 4.472656-9.992187 9.992188v3.839843h-12.910156c-5.519531 0-9.992188 4.472657-9.992188 9.992188s4.472657 9.992187 9.992188 9.992187h22.902343c5.519532 0 9.996094-4.472656 9.996094-9.992187v-13.832031c0-5.519532-4.476562-9.992188-9.996094-9.992188zm0 0" style="opacity: 0.75;"/>
</svg>