<?xml version="1.0" encoding="utf-8"?>
<svg version="1.1" id="Capa_1" x="0px" y="0px" viewBox="0 0 28.05 28.05" style="enable-background:new 0 0 28.05 28.05;" xmlns="http://www.w3.org/2000/svg">
  <g style="opacity: 0.75;">
    <path style="fill:#030104;" d="M25.352,0H2.699C1.447,0,0.434,1.002,0.434,2.232v23.586c0,1.234,1.013,2.232,2.265,2.232h22.653 c1.248,0,2.264-0.998,2.264-2.232V2.232C27.616,1.002,26.6,0,25.352,0z M4.052,1.68h19.945c1.098,0,1.994,0.881,1.994,1.965v4.959 H2.059V3.645C2.059,2.561,2.953,1.68,4.052,1.68z M25.992,10.9v6.625H2.059V10.9H25.992z M23.997,26.371H4.052 c-1.1,0-1.993-0.877-1.993-1.963v-4.586h23.933v4.586C25.992,25.494,25.095,26.371,23.997,26.371z"/>
  </g>
  <g style="opacity: 0.75;"/>
  <g style="opacity: 0.75;"/>
  <g style="opacity: 0.75;"/>
  <g style="opacity: 0.75;"/>
  <g style="opacity: 0.75;"/>
  <g style="opacity: 0.75;"/>
  <g style="opacity: 0.75;"/>
  <g style="opacity: 0.75;"/>
  <g style="opacity: 0.75;"/>
  <g style="opacity: 0.75;"/>
  <g style="opacity: 0.75;"/>
  <g style="opacity: 0.75;"/>
  <g style="opacity: 0.75;"/>
  <g style="opacity: 0.75;"/>
  <g style="opacity: 0.75;"/>
</svg>