<?xml version="1.0" encoding="utf-8"?>
<svg version="1.1" id="Capa_1" x="0px" y="0px" viewBox="0 0 390.87 390.87" style="enable-background:new 0 0 390.87 390.87;" xmlns="http://www.w3.org/2000/svg">
  <g style="opacity: 0.75;">
    <path d="M214.595,103.289c18.209,3.683,34.781,12.689,47.924,26.044c13.145,13.354,21.883,30.069,25.273,48.338 c0.572,3.08,3.258,5.314,6.391,5.314h90.188c1.832,0,3.58-0.774,4.813-2.131c1.232-1.357,1.834-3.172,1.656-4.997 c-4.313-44.452-24.217-86.612-56.049-118.713c-31.83-32.1-73.816-52.355-118.225-57.035c-1.83-0.197-3.66,0.4-5.029,1.633 c-1.369,1.233-2.152,2.988-2.152,4.831v90.345C209.384,100.011,211.564,102.676,214.595,103.289z"/>
    <path d="M384.041,209.986h-90.49c-3.055,0-5.695,2.126-6.35,5.108c-9.461,43.169-47.01,73.319-91.316,73.319 c-18.065,0-35.585-5.154-50.665-14.906c-2.573-1.664-5.958-1.306-8.126,0.862l-63.952,63.95c-1.308,1.309-1.997,3.111-1.894,4.958 c0.103,1.848,0.988,3.563,2.433,4.717c34.553,27.603,77.952,42.804,122.204,42.804c47.863,0,94.134-17.796,130.289-50.109 c36.086-32.249,58.93-76.098,64.324-123.468c0.211-1.84-0.375-3.682-1.607-5.063C387.656,210.776,385.892,209.986,384.041,209.986z M309.751,318.275c-31.082,28.711-71.52,44.523-113.867,44.523c-20.233,0-40.002-3.556-58.758-10.568 c-8.983-3.359-17.705-7.507-25.956-12.341l34.363-34.362c15.822,7.225,32.756,10.887,50.351,10.887 c50.427,0,95.968-31.472,113.664-78.428h48.637C350.043,268.772,333.324,296.499,309.751,318.275z"/>
    <path d="M118.462,247.348c-10.518-15.475-16.077-33.606-16.077-52.435c0-22.39,8.039-44.051,22.635-60.992 c13.486-15.653,32.011-26.531,52.161-30.631c3.028-0.615,5.204-3.279,5.204-6.369V6.572c0-1.843-0.782-3.598-2.151-4.831 c-1.37-1.231-3.198-1.829-5.03-1.633C127.397,5.141,83.14,27.808,50.583,63.934C17.964,100.129,0,146.646,0,194.913 c0,45.105,15.714,89.146,44.248,124.012c1.163,1.421,2.873,2.283,4.707,2.375c0.108,0.005,0.216,0.008,0.324,0.008 c1.719,0,3.374-0.682,4.596-1.903l63.807-63.807C119.888,253.391,120.215,249.928,118.462,247.348z M72.961,80.566 c4.191-4.503,8.71-8.849,13.437-12.922h67.987v12.999c-3.181,1.146-6.448,2.488-9.731,4.001h-75.36 C70.516,83.238,71.743,81.874,72.961,80.566z M154.385,32.192v12.452h-33.444C131.633,39.3,142.85,35.123,154.385,32.192z M43.373,124.644c2.678-5.803,5.722-11.509,9.069-17h58.654c-5.361,5.203-10.239,10.906-14.541,17H43.373z M30.737,164.644 c1.041-5.71,2.393-11.416,4.027-17h49.067c-2.316,5.531-4.224,11.235-5.686,17H30.737z M78.834,227.644 c1.614,5.788,3.681,11.492,6.159,17H35.542c-1.713-5.532-3.156-11.238-4.301-17H78.834z M74.774,204.644H28.291 c-0.193-3.302-0.291-6.568-0.291-9.73c0-2.351,0.054-4.79,0.162-7.27h46.446c-0.15,2.515-0.224,4.906-0.224,7.27 C74.385,198.108,74.516,201.374,74.774,204.644z M66.037,267.644l-13.944,13.944c-2.67-4.44-5.187-9.114-7.505-13.944H66.037z"/>
  </g>
  <g style="opacity: 0.75;"/>
  <g style="opacity: 0.75;"/>
  <g style="opacity: 0.75;"/>
  <g style="opacity: 0.75;"/>
  <g style="opacity: 0.75;"/>
  <g style="opacity: 0.75;"/>
  <g style="opacity: 0.75;"/>
  <g style="opacity: 0.75;"/>
  <g style="opacity: 0.75;"/>
  <g style="opacity: 0.75;"/>
  <g style="opacity: 0.75;"/>
  <g style="opacity: 0.75;"/>
  <g style="opacity: 0.75;"/>
  <g style="opacity: 0.75;"/>
  <g style="opacity: 0.75;"/>
</svg>