<?xml version="1.0" encoding="utf-8"?>
<svg version="1.1" id="Capa_1" x="0px" y="0px" viewBox="0 0 512 512" style="enable-background:new 0 0 512 512;" xmlns="http://www.w3.org/2000/svg">
  <g style="opacity: 0.75;">
    <g>
      <path d="M384.671,0H30.631c-4.143,0-7.5,3.357-7.5,7.5v175.008c0,4.142,3.357,7.5,7.5,7.5c4.143,0,7.5-3.357,7.5-7.5V15h339.04 v12.84c0,4.143,3.357,7.5,7.5,7.5c4.143,0,7.5-3.357,7.5-7.5V7.5C392.171,3.357,388.814,0,384.671,0z"/>
    </g>
  </g>
  <g style="opacity: 0.75;">
    <g>
      <path d="M116.493,79.933c-24.076,0-43.664,19.588-43.664,43.664c0,24.076,19.588,43.664,43.664,43.664 s43.664-19.588,43.664-43.664S140.569,79.933,116.493,79.933z M116.493,152.261c-15.806,0-28.664-12.858-28.664-28.664 c0-15.806,12.858-28.664,28.664-28.664s28.664,12.858,28.664,28.664C145.157,139.403,132.299,152.261,116.493,152.261z"/>
    </g>
  </g>
  <g style="opacity: 0.75;">
    <g>
      <path d="M145.373,219.208H86.15c-4.143,0-7.5,3.357-7.5,7.5c0,4.143,3.357,7.5,7.5,7.5h59.224c4.143,0,7.5-3.357,7.5-7.5 C152.873,222.565,149.516,219.208,145.373,219.208z"/>
    </g>
  </g>
  <g style="opacity: 0.75;">
    <g>
      <path d="M207.648,249.622H86.15c-4.143,0-7.5,3.357-7.5,7.5c0,4.143,3.357,7.5,7.5,7.5h121.497c4.143,0,7.501-3.357,7.501-7.5 C215.148,252.979,211.791,249.622,207.648,249.622z"/>
    </g>
  </g>
  <g style="opacity: 0.75;">
    <g>
      <path d="M129.344,280.035H86.15c-4.143,0-7.5,3.357-7.5,7.5c0,4.143,3.357,7.5,7.5,7.5h43.194c4.143,0,7.5-3.357,7.5-7.5 C136.844,283.392,133.487,280.035,129.344,280.035z"/>
    </g>
  </g>
  <g style="opacity: 0.75;">
    <g>
      <path d="M488.869,87.842c0-1.989-0.79-3.896-2.196-5.304l-35.381-35.38c-2.93-2.928-7.678-2.928-10.607,0l-48.513,48.513V58.152 c0-4.143-3.357-7.5-7.5-7.5c-4.143,0-7.5,3.357-7.5,7.5v52.518L273.637,214.205c-2.929,2.93-2.929,7.678,0,10.607 c1.465,1.464,3.385,2.196,5.304,2.196c1.919,0,3.839-0.732,5.304-2.196L445.987,63.068l24.774,24.773l-17.888,17.887l-3.889-3.889 c-2.93-2.928-7.678-2.928-10.607,0L330.632,209.587c-2.929,2.93-2.929,7.678,0,10.607l3.889,3.889L185.099,373.505l-24.773-24.775 l102.486-102.484c2.929-2.93,2.929-7.678,0-10.607c-2.929-2.927-7.677-2.929-10.607,0l-44.397,44.396h-45.474 c-4.143,0-7.5,3.357-7.5,7.5c0,4.143,3.357,7.5,7.5,7.5h30.474l-58.733,58.732c-0.649,0.65-1.174,1.414-1.548,2.254 l-19.404,43.586c-1.081,2.429-1.516,4.999-1.361,7.511H86.15c-4.143,0-7.5,3.357-7.5,7.5c0,4.143,3.357,7.5,7.5,7.5h40.858 c0.142,0,0.28-0.013,0.419-0.021c0.084,0.001,0.168,0.012,0.252,0.012c2.199,0,4.424-0.459,6.541-1.401l43.587-19.405 c0.839-0.374,1.603-0.898,2.253-1.548l62.505-62.506c1.335,1.225,3.109,1.979,5.065,1.979h87.342c4.143,0,7.5-3.357,7.5-7.5 c0-4.143-3.357-7.5-7.5-7.5h-79.386l29.194-29.194h50.19c4.143,0,7.5-3.357,7.5-7.5c0-4.143-3.357-7.5-7.5-7.5h-35.19 l45.345-45.345l3.889,3.889c1.465,1.464,3.385,2.196,5.304,2.196c1.919,0,3.839-0.732,5.304-2.196l17.547-17.547V373.15 l-107.24,0.251c-4.702,0.011-9.114,1.857-12.423,5.199s-5.111,7.772-5.075,12.476L253.246,497H38.131V212.82 c0-4.143-3.357-7.5-7.5-7.5c-4.143,0-7.5,3.357-7.5,7.5V504.5c0,4.143,3.357,7.5,7.5,7.5h230.172c1.964,0,3.914-0.807,5.304-2.196 l123.868-123.867c1.381-1.381,2.196-3.351,2.196-5.304V206.032l75.2-75.2c2.929-2.93,2.929-7.678,0-10.607l-3.889-3.889 l23.19-23.19C488.079,91.738,488.869,89.831,488.869,87.842z M170.438,388.166l-42.318,18.84 c-0.216,0.096-0.616,0.274-1.093-0.203c-0.478-0.477-0.299-0.878-0.203-1.094l18.839-42.316l2.633-2.633l24.774,24.774 L170.438,388.166z M268.166,486.53l-0.734-95.569c-0.006-0.919,0.458-1.526,0.735-1.807c0.277-0.28,0.88-0.751,1.799-0.753 l96.556-0.226L268.166,486.53z M354.32,222.669l-7.778-7.778l97.141-97.141l7.778,7.778L354.32,222.669z"/>
    </g>
  </g>
  <g style="opacity: 0.75;">
    <g>
      <path d="M334.974,79.933H189.849c-4.143,0-7.5,3.357-7.5,7.5v27.628c0,4.143,3.357,7.5,7.5,7.5h145.125c4.142,0,7.5-3.358,7.5-7.5 V87.433C342.474,83.29,339.117,79.933,334.974,79.933z M327.474,107.561H197.349V94.933h130.125V107.561z"/>
    </g>
  </g>
  <g style="opacity: 0.75;">
    <g>
      <path d="M277.182,135.497h-87.334c-4.143,0-7.5,3.357-7.5,7.5c0,4.143,3.357,7.5,7.5,7.5h87.334c4.142,0,7.5-3.357,7.5-7.5 C284.682,138.854,281.325,135.497,277.182,135.497z"/>
    </g>
  </g>
  <g style="opacity: 0.75;">
    <g>
      <path d="M140.514,454.01h-54.66c-4.143,0-7.5,3.357-7.5,7.5s3.357,7.5,7.5,7.5h54.66c4.143,0,7.5-3.357,7.5-7.5 S144.657,454.01,140.514,454.01z"/>
    </g>
  </g>
  <g style="opacity: 0.75;"/>
  <g style="opacity: 0.75;"/>
  <g style="opacity: 0.75;"/>
  <g style="opacity: 0.75;"/>
  <g style="opacity: 0.75;"/>
  <g style="opacity: 0.75;"/>
  <g style="opacity: 0.75;"/>
  <g style="opacity: 0.75;"/>
  <g style="opacity: 0.75;"/>
  <g style="opacity: 0.75;"/>
  <g style="opacity: 0.75;"/>
  <g style="opacity: 0.75;"/>
  <g style="opacity: 0.75;"/>
  <g style="opacity: 0.75;"/>
  <g style="opacity: 0.75;"/>
</svg>