<?xml version="1.0" encoding="utf-8"?>
<svg height="682pt" viewBox="-21 -91 682.66669 682" width="682pt" xmlns="http://www.w3.org/2000/svg">
  <path d="m639.984375 7.53125c-.335937-6.617188-5.796875-11.863281-12.484375-11.863281h-615c-6.6875 0-12.148438 5.246093-12.484375 11.863281-.015625.214844-.015625.425781-.015625.640625v474.988281c0 6.90625 5.601562 12.507813 12.5 12.507813h615c6.898438 0 12.5-5.601563 12.5-12.507813v-474.988281c0-.214844 0-.425781-.015625-.640625zm-24.984375 463.125h-590v-367.457031h590zm0-392.464844h-590v-57.667968h590zm0 0" style="opacity: 0.75;"/>
  <path d="m213.75 62.722656h-100c-6.90625 0-12.5-5.597656-12.5-12.5 0-6.910156 5.59375-12.503906 12.5-12.503906h100c6.90625 0 12.5 5.59375 12.5 12.503906 0 6.902344-5.59375 12.5-12.5 12.5zm0 0" style="opacity: 0.75;"/>
  <path d="m63.773438 62.722656c-6.902344 0-12.503907-5.597656-12.503907-12.5 0-6.910156 5.589844-12.503906 12.496094-12.503906h.007813c6.90625 0 12.5 5.59375 12.5 12.503906 0 6.902344-5.59375 12.5-12.5 12.5zm0 0" style="opacity: 0.75;"/>
  <path d="m503.589844 228.988281c-.152344-.164062-.304688-.3125-.449219-.464843-49.015625-48.664063-114.054687-75.460938-183.140625-75.460938-67.910156 0-132.164062 26.03125-180.921875 73.296875-.167969.152344-.3125.3125-.464844.464844-50.703125 49.363281-78.613281 115.507812-78.613281 186.316406 0 6.90625 5.601562 12.507813 12.5 12.507813h91.25c6.898438 0 12.5-5.601563 12.5-12.507813 0-39.75 15.863281-76.746094 44.664062-104.167969 26.824219-25.558594 62.011719-39.625 99.085938-39.625 38.078125 0 73.964844 14.742188 101.023438 41.5 27.550781 27.234375 42.726562 63.558594 42.726562 102.292969 0 6.90625 5.601562 12.507813 12.5 12.507813h91.25c6.898438 0 12.5-5.601563 12.5-12.507813 0-69.632813-27.140625-135.003906-76.410156-184.152344zm-351.890625 171.648438h-66.371094c2.859375-55.351563 24.734375-106.957031 62.507813-147.519531l46.890624 46.90625c-25.335937 27.96875-40.3125 62.96875-43.027343 100.613281zm168.300781-156.292969c-39.421875 0-77.035156 13.550781-107.1875 38.40625l-47-47.011719c42.777344-37.273437 97.046875-57.664062 154.1875-57.664062 58.238281 0 113.285156 21.0625 156.386719 59.589843l.015625.015626-46.964844 46.960937c-30.5-26.070313-68.910156-40.296875-109.4375-40.296875zm168.300781 156.292969c-2.660156-36.585938-16.9375-70.796875-41.089843-98.402344v-.015625l46.9375-46.9375c36.539062 40.25 57.703124 91.0625 60.523437 145.355469zm0 0" style="opacity: 0.75;"/>
  <path d="m318.75 425.648438c-3.199219 0-6.398438-1.222657-8.835938-3.664063l-70-70.023437c-4.882812-4.882813-4.882812-12.796876 0-17.679688 4.882813-4.882812 12.789063-4.882812 17.671876 0l70 70.019531c4.882812 4.882813 4.882812 12.796875 0 17.683594-2.4375 2.441406-5.636719 3.664063-8.835938 3.664063zm0 0" style="opacity: 0.75;"/>
</svg>