<?xml version="1.0" encoding="utf-8"?>
<svg width="293" height="260" xmlns="http://www.w3.org/2000/svg" xmlns:xlink="http://www.w3.org/1999/xlink">
  <g transform="translate(-9 220)" style="opacity: 0.75;">
    <path d="M30-200h240V20H30z" stroke="#000" stroke-opacity="0" stroke-width="2" fill="#fff" fill-opacity="0"/>
    <g transform="matrix(1, 0, 0, 1, 14, -24.333)">
      <use transform="matrix(0.5925925925925927,0,0,0.5925925925925927,0,0)" xlink:href="#b"/>
      <use transform="matrix(0.5925925925925927,0,0,0.5925925925925927,153.4814814814815,0)" xlink:href="#c"/>
    </g>
    <defs>
      <path d="M197 0v-115H63V0H30v-248h33v105h134v-105h34V0h-34" id="b"/>
      <path d="M155-56V0h-30v-56H8v-25l114-167h33v167h35v25h-35zm-30-156c-27 46-58 90-88 131h88v-131" id="c"/>
      <g id="a">
        <path d="M 116.741 0 L 116.741 -68.148 L 37.333 -68.148 L 37.333 0 L 17.778 0 L 17.778 -146.963 L 37.333 -146.963 L 37.333 -84.741 L 116.741 -84.741 L 116.741 -146.963 L 136.889 -146.963 L 136.889 0 L 116.741 0"/>
        <path d="M 245.333 -33.185 L 245.333 0 L 227.556 0 L 227.556 -33.185 L 158.222 -33.185 L 158.222 -48 L 225.778 -146.963 L 245.333 -146.963 L 245.333 -48 L 266.074 -48 L 266.074 -33.185 L 245.333 -33.185 Z M 227.556 -125.63 C 211.556 -98.37 193.185 -72.296 175.407 -48 L 227.556 -48 L 227.556 -125.63"/>
      </g>
    </defs>
  </g>
</svg>