<?xml version="1.0" encoding="utf-8"?>
<svg width="280" height="242" xmlns="http://www.w3.org/2000/svg" xmlns:xlink="http://www.w3.org/1999/xlink">
  <g transform="translate(-10 211)" style="opacity: 0.75;">
    <path d="M30-191h240V11H30z" stroke="#000" stroke-opacity="0" stroke-width="2" fill="#fff" fill-opacity="0"/>
    <g transform="matrix(1, 0, 0, 1, 48, -58)">
      <use transform="matrix(0.4444444444444444,0,0,0.4444444444444444,0,0)" xlink:href="#b"/>
      <use transform="matrix(0.4444444444444444,0,0,0.4444444444444444,115.1111111111111,0)" xlink:href="#c"/>
    </g>
    <defs>
      <path d="M197 0v-115H63V0H30v-248h33v105h134v-105h34V0h-34" id="b"/>
      <path d="M54-142c48-35 137-8 131 61C196 18 31 33 14-55l32-4c7 23 22 37 52 37 35-1 51-22 54-58 4-55-73-65-99-34H22l8-134h141v27H59" id="c"/>
      <g id="a">
        <path d="M 87.556 0 L 87.556 -51.111 L 28 -51.111 L 28 0 L 13.333 0 L 13.333 -110.222 L 28 -110.222 L 28 -63.556 L 87.556 -63.556 L 87.556 -110.222 L 102.667 -110.222 L 102.667 0 L 87.556 0"/>
        <path d="M 139.111 -63.111 C 160.444 -78.667 200 -66.667 197.333 -36 C 202.222 8 128.889 14.667 121.333 -24.444 L 135.556 -26.222 C 138.667 -16 145.333 -9.778 158.667 -9.778 C 174.222 -10.222 181.333 -19.556 182.667 -35.556 C 184.444 -60 150.222 -64.444 138.667 -50.667 L 124.889 -50.667 L 128.444 -110.222 L 191.111 -110.222 L 191.111 -98.222 L 141.333 -98.222"/>
      </g>
    </defs>
  </g>
</svg>