<?xml version="1.0" encoding="utf-8"?>
<svg width="280" height="242" xmlns="http://www.w3.org/2000/svg" xmlns:xlink="http://www.w3.org/1999/xlink">
  <g transform="translate(-10 211)" style="opacity: 0.75;">
    <path d="M30-191h240V11H30z" stroke="#000" stroke-opacity="0" stroke-width="2" fill="#fff" fill-opacity="0"/>
    <g transform="matrix(1, 0, 0, 1, 65, -63.333)">
      <use transform="matrix(0.3703703703703704,0,0,0.3703703703703704,0,0)" xlink:href="#b"/>
      <use transform="matrix(0.3703703703703704,0,0,0.3703703703703704,95.92592592592594,0)" xlink:href="#c"/>
    </g>
    <defs>
      <path d="M197 0v-115H63V0H30v-248h33v105h134v-105h34V0h-34" id="b"/>
      <path d="M110-160c48 1 74 30 74 79 0 53-28 85-80 85-65 0-83-55-86-122-5-90 50-162 133-122 14 7 22 21 27 39l-31 6c-5-40-67-38-82-6-9 19-15 44-15 74 11-20 30-34 60-33zm-7 138c34 0 49-23 49-58s-16-56-50-56c-29 0-50 16-49 49 1 36 15 65 50 65" id="c"/>
      <g id="a">
        <path d="M 72.963 0 L 72.963 -42.593 L 23.333 -42.593 L 23.333 0 L 11.111 0 L 11.111 -91.852 L 23.333 -91.852 L 23.333 -52.963 L 72.963 -52.963 L 72.963 -91.852 L 85.556 -91.852 L 85.556 0 L 72.963 0"/>
        <path d="M 136.667 -59.259 C 154.444 -58.889 164.074 -48.148 164.074 -30 C 164.074 -10.37 153.704 1.481 134.444 1.481 C 110.37 1.481 103.704 -18.889 102.593 -43.704 C 100.741 -77.037 121.111 -103.704 151.852 -88.889 C 157.037 -86.296 160 -81.111 161.852 -74.444 L 150.37 -72.222 C 148.519 -87.037 125.556 -86.296 120 -74.444 C 116.667 -67.407 114.444 -58.148 114.444 -47.037 C 118.519 -54.444 125.556 -59.63 136.667 -59.259 Z M 134.074 -8.148 C 146.667 -8.148 152.222 -16.667 152.222 -29.63 C 152.222 -42.593 146.296 -50.37 133.704 -50.37 C 122.963 -50.37 115.185 -44.444 115.556 -32.222 C 115.926 -18.889 121.111 -8.148 134.074 -8.148"/>
      </g>
    </defs>
  </g>
</svg>