<?xml version="1.0" encoding="utf-8"?>
<svg height="512pt" viewBox="0 0 512 512" width="512pt" xmlns="http://www.w3.org/2000/svg">
  <path d="m467 271c24.8125 0 45-20.1875 45-45s-20.1875-45-45-45c-6.96875 0-13.570312 1.59375-19.46875 4.433594l-60.894531-60.121094c2.792969-5.855469 4.363281-12.402344 4.363281-19.3125 0-24.8125-20.1875-45-45-45s-45 20.1875-45 45c0 6.9375 1.582031 13.515625 4.398438 19.390625l-60.007813 60.007813c-5.875-2.816407-12.453125-4.398438-19.390625-4.398438s-13.515625 1.582031-19.390625 4.398438l-60.007813-60.007813c2.816407-5.875 4.398438-12.453125 4.398438-19.390625 0-24.8125-20.1875-45-45-45s-45 20.1875-45 45c0 9.179688 2.769531 17.726562 7.507812 24.851562l-38.507812 50.640626v-166.492188c0-8.285156-6.714844-15-15-15s-15 6.714844-15 15v482c0 8.285156 6.714844 15 15 15h482c8.285156 0 15-6.714844 15-15s-6.714844-15-15-15h-467v-70.945312l62.460938-82.140626c4.273437 1.351563 8.824218 2.085938 13.539062 2.085938 6.9375 0 13.515625-1.582031 19.390625-4.398438l60.007813 60.007813c-2.816407 5.875-4.398438 12.453125-4.398438 19.390625 0 24.8125 20.1875 45 45 45s45-20.1875 45-45c0-6.9375-1.582031-13.515625-4.398438-19.390625l60.007813-60.007813c5.875 2.816407 12.453125 4.398438 19.390625 4.398438 6.96875 0 13.570312-1.59375 19.46875-4.433594l60.894531 60.121094c-2.792969 5.855469-4.363281 12.402344-4.363281 19.3125 0 24.8125 20.1875 45 45 45s45-20.1875 45-45-20.1875-45-45-45c-6.96875 0-13.570312 1.59375-19.46875 4.433594l-60.894531-60.121094c2.792969-5.855469 4.363281-12.402344 4.363281-19.3125 0-24.8125-20.1875-45-45-45s-45 20.1875-45 45c0 6.9375 1.582031 13.515625 4.398438 19.390625l-60.007813 60.007813c-5.875-2.816407-12.453125-4.398438-19.390625-4.398438s-13.515625 1.582031-19.390625 4.398438l-60.007813-60.007813c2.816407-5.875 4.398438-12.453125 4.398438-19.390625 0-24.8125-20.1875-45-45-45s-45 20.1875-45 45c0 9.179688 2.769531 17.726562 7.507812 24.851562l-38.507812 50.640626v-130.4375l62.460938-82.140626c4.273437 1.351563 8.824218 2.085938 13.539062 2.085938 6.9375 0 13.515625-1.582031 19.390625-4.398438l60.007813 60.007813c-2.816407 5.875-4.398438 12.453125-4.398438 19.390625 0 24.8125 20.1875 45 45 45s45-20.1875 45-45c0-6.9375-1.582031-13.515625-4.398438-19.390625l60.007813-60.007813c5.875 2.816407 12.453125 4.398438 19.390625 4.398438 6.96875 0 13.570312-1.59375 19.46875-4.433594l60.894531 60.121094c-2.792969 5.855469-4.363281 12.402344-4.363281 19.3125 0 24.8125 20.1875 45 45 45zm15 135c0 8.269531-6.730469 15-15 15s-15-6.730469-15-15 6.730469-15 15-15 15 6.730469 15 15zm-136-135c8.269531 0 15 6.730469 15 15s-6.730469 15-15 15-15-6.730469-15-15 6.730469-15 15-15zm-105 135c0 8.269531-6.730469 15-15 15s-15-6.730469-15-15 6.730469-15 15-15 15 6.730469 15 15zm-135-135c8.269531 0 15 6.730469 15 15s-6.730469 15-15 15-15-6.730469-15-15 6.730469-15 15-15zm376-45c0 8.269531-6.730469 15-15 15s-15-6.730469-15-15 6.730469-15 15-15 15 6.730469 15 15zm-391-120c0-8.269531 6.730469-15 15-15s15 6.730469 15 15-6.730469 15-15 15-15-6.730469-15-15zm135 135c-8.269531 0-15-6.730469-15-15s6.730469-15 15-15 15 6.730469 15 15-6.730469 15-15 15zm105-135c0-8.269531 6.730469-15 15-15s15 6.730469 15 15-6.730469 15-15 15-15-6.730469-15-15zm0 0" style="opacity: 0.75;"/>
</svg>