<?xml version="1.0" encoding="utf-8"?>
<svg height="464pt" viewBox="0 -45 464.027 464" width="464pt" xmlns="http://www.w3.org/2000/svg">
  <path d="m351.457031 302.988281c-1.140625 0-2.285156-.28125-3.324219-.84375-2.261718-1.222656-3.671874-3.582031-3.671874-6.152343l-.023438-34.398438-117.402344.074219h-.003906c-1.855469 0-3.636719-.738281-4.949219-2.046875-1.3125-1.3125-2.050781-3.09375-2.050781-4.949219l-.035156-55.199219c0-3.863281 3.128906-7 6.996094-7.003906l117.40625-.070312-.023438-34.398438c0-2.570312 1.40625-4.933594 3.664062-6.160156 2.261719-1.222656 5.011719-1.113282 7.160157.292968l105.628906 68.933594c1.980469 1.289063 3.175781 3.492188 3.175781 5.855469s-1.191406 4.566406-3.167968 5.859375l-105.542969 69.0625c-1.164063.761719-2.496094 1.144531-3.835938 1.144531zm-.023437-55.398437c1.855468 0 3.632812.738281 4.945312 2.046875 1.3125 1.3125 2.050782 3.09375 2.054688 4.949219l.015625 28.460937 85.757812-56.113281-85.824219-56.007813.015626 28.464844c.003906 3.863281-3.128907 7-6.996094 7l-117.402344.074219.027344 41.199218 117.402344-.074218zm0 0" style="opacity: 0.75;"/>
  <path d="m376.980469 374.078125h-329.984375c-25.914063 0-46.996094-21.082031-46.996094-46.996094v-280.074219c0-25.914062 21.082031-46.9960932 46.996094-46.9960932h329.984375c25.914062 0 46.996093 21.0820312 46.996093 46.9960932v153.230469c0 3.867188-3.132812 7-7 7-3.863281 0-6.996093-3.132812-6.996093-7v-153.230469c0-18.195312-14.804688-32.996093-33-32.996093h-329.984375c-18.195313 0-32.996094 14.800781-32.996094 32.996093v280.074219c0 18.191407 14.800781 32.996094 32.996094 32.996094h329.984375c18.195312 0 33-14.804687 33-32.996094v-73.964843c0-3.863282 3.132812-6.996094 6.996093-6.996094 3.867188 0 7 3.132812 7 6.996094v73.964843c0 25.914063-21.082031 46.996094-46.996093 46.996094zm0 0" style="opacity: 0.75;"/>
  <path d="m416.976562 112.097656h-409.976562c-3.867188 0-7-3.132812-7-7 0-3.867187 3.132812-7 7-7h409.976562c3.867188 0 7 3.132813 7 7 0 3.867188-3.132812 7-7 7zm0 0" style="opacity: 0.75;"/>
  <path d="m119.597656 78.601562c-12.214844 0-22.152344-9.9375-22.152344-22.152343 0-12.214844 9.9375-22.152344 22.152344-22.152344 12.210938 0 22.148438 9.9375 22.148438 22.152344 0 12.214843-9.9375 22.152343-22.148438 22.152343zm0-30.304687c-4.496094 0-8.152344 3.65625-8.152344 8.152344 0 4.496093 3.65625 8.152343 8.152344 8.152343 4.492188 0 8.148438-3.65625 8.148438-8.152343 0-4.496094-3.65625-8.152344-8.148438-8.152344zm0 0" style="opacity: 0.75;"/>
  <path d="m51.535156 78.386719c-12.210937 0-22.148437-9.9375-22.148437-22.152344 0-12.210937 9.9375-22.148437 22.148437-22.148437 12.214844 0 22.152344 9.9375 22.152344 22.148437 0 12.214844-9.9375 22.152344-22.152344 22.152344zm0-30.300781c-4.492187 0-8.152344 3.65625-8.152344 8.148437 0 4.496094 3.660157 8.152344 8.152344 8.152344 4.496094 0 8.152344-3.65625 8.152344-8.152344 0-4.492187-3.65625-8.148437-8.152344-8.148437zm0 0" style="opacity: 0.75;"/>
  <path d="m187.65625 78.8125c-12.214844 0-22.152344-9.9375-22.152344-22.148438 0-12.214843 9.9375-22.152343 22.152344-22.152343 12.210938 0 22.148438 9.9375 22.148438 22.152343 0 12.210938-9.9375 22.148438-22.148438 22.148438zm0-30.300781c-4.496094 0-8.152344 3.65625-8.152344 8.152343 0 4.492188 3.65625 8.148438 8.152344 8.148438 4.492188 0 8.152344-3.65625 8.152344-8.148438 0-4.496093-3.660156-8.152343-8.152344-8.152343zm0 0" style="opacity: 0.75;"/>
</svg>