<?xml version="1.0" encoding="utf-8"?>
<svg version="1.1" id="Layer_1" x="0px" y="0px" viewBox="0 0 426.667 426.667" style="enable-background:new 0 0 426.667 426.667;" xmlns="http://www.w3.org/2000/svg">
  <g style="opacity: 0.75;">
    <g>
      <g>
        <path d="M42.667,85.333H0v320c0,11.776,9.536,21.333,21.333,21.333h320V384H42.667V85.333z"/>
        <path d="M405.333,0H106.667C94.869,0,85.333,9.579,85.333,21.333V320c0,11.776,9.536,21.333,21.333,21.333h298.667 c11.797,0,21.333-9.557,21.333-21.333V21.333C426.667,9.579,417.131,0,405.333,0z M298.667,277.333H256V106.667h-42.667V64h64 c11.797,0,21.333,9.557,21.333,21.333V277.333z"/>
      </g>
    </g>
  </g>
  <g style="opacity: 0.75;"/>
  <g style="opacity: 0.75;"/>
  <g style="opacity: 0.75;"/>
  <g style="opacity: 0.75;"/>
  <g style="opacity: 0.75;"/>
  <g style="opacity: 0.75;"/>
  <g style="opacity: 0.75;"/>
  <g style="opacity: 0.75;"/>
  <g style="opacity: 0.75;"/>
  <g style="opacity: 0.75;"/>
  <g style="opacity: 0.75;"/>
  <g style="opacity: 0.75;"/>
  <g style="opacity: 0.75;"/>
  <g style="opacity: 0.75;"/>
  <g style="opacity: 0.75;"/>
</svg>