<?xml version="1.0" encoding="utf-8"?>
<svg width="280" height="242" xmlns="http://www.w3.org/2000/svg" xmlns:xlink="http://www.w3.org/1999/xlink">
  <g transform="translate(-10 211)" style="opacity: 0.75;">
    <path d="M30-191h240V11H30z" stroke="#000" stroke-opacity="0" stroke-width="2" fill="#fff" fill-opacity="0"/>
    <g transform="matrix(1, 0, 0, 1, 35.185, -63.333)">
      <use transform="matrix(0.3703703703703704,0,0,0.3703703703703704,0,0)" xlink:href="#b"/>
      <use transform="matrix(0.3703703703703704,0,0,0.3703703703703704,77.77777777777779,0)" xlink:href="#c"/>
      <use transform="matrix(0.3703703703703704,0,0,0.3703703703703704,151.85185185185185,0)" xlink:href="#d"/>
    </g>
    <defs>
      <path d="M18-100v-36l175-74v27L42-118l151 64v27" id="b"/>
      <path d="M115-194c55 1 70 41 70 98S169 2 115 4C84 4 66-9 55-30l1 105H24l-1-265h31l2 30c10-21 28-34 59-34zm-8 174c40 0 45-34 45-75s-6-73-45-74c-42 0-51 32-51 76 0 43 10 73 51 73" id="c"/>
      <path d="M18-27v-27l151-64-151-65v-27l175 74v36" id="d"/>
      <g id="a">
        <path d="M 6.667 -37.037 L 6.667 -50.37 L 71.481 -77.778 L 71.481 -67.778 L 15.556 -43.704 L 71.481 -20 L 71.481 -10"/>
        <path d="M 120.37 -71.852 C 140.741 -71.481 146.296 -56.667 146.296 -35.556 C 146.296 -14.444 140.37 0.741 120.37 1.481 C 108.889 1.481 102.222 -3.333 98.148 -11.111 L 98.519 27.778 L 86.667 27.778 L 86.296 -70.37 L 97.778 -70.37 L 98.519 -59.259 C 102.222 -67.037 108.889 -71.852 120.37 -71.852 Z M 117.407 -7.407 C 132.222 -7.407 134.074 -20 134.074 -35.185 C 134.074 -50.37 131.852 -62.222 117.407 -62.593 C 101.852 -62.593 98.519 -50.741 98.519 -34.444 C 98.519 -18.519 102.222 -7.407 117.407 -7.407"/>
        <path d="M 158.519 -10 L 158.519 -20 L 214.444 -43.704 L 158.519 -67.778 L 158.519 -77.778 L 223.333 -50.37 L 223.333 -37.037"/>
      </g>
    </defs>
  </g>
</svg>