<svg xmlns="http://www.w3.org/2000/svg" xmlns:lucid="lucid" width="227" height="235.8"><g lucid:page-tab-id="0_0"><path d="M20 20h59v20H20zM79 20h67v20H79zM146 20h61v20h-61z" fill="#fff"/><path d="M20 40h59v175.8H20zM79 40h67v175.8H79zM146 40h61v175.8h-61z" fill="#e5e5e5"/><path d="M20 20v20M79 20v20M146 20v20M207 20v20M20 40v175.8M79 40v175.8M146 40v175.8M207 40v175.8M20 20h59M79 20h67M146 20h61M20 40h59M20 215.8h59M79 40h67M79 215.8h67M146 40h61M146 215.8h61M78.44 49.62h67.44" stroke="#000" fill="none"/></g></svg>