<svg xmlns="http://www.w3.org/2000/svg" xmlns:lucid="lucid" width="238" height="235.8"><g lucid:page-tab-id="0_0"><path d="M20 20h49v20H20zM69 20h149v20H69z" fill="#fff"/><path d="M20 40h49v175.8H20zM69 40h149v175.8H69z" fill="#e5e5e5"/><path d="M20 20v20M69 20v20M218 20v20M20 40v175.8M69 40v175.8M218 40v175.8M20 20h49M69 20h149M20 40h49M20 215.8h49M69 40h149M69 215.8h149M73.36 58.7H218.5M73.36 58.7h-3" stroke="#000" fill="none"/><path transform="translate(-26.29499425452454 -26.54592789428324)"/></g></svg>