<?xml version="1.0" encoding="utf-8"?>
<svg height="512pt" viewBox="-55 0 512 512" width="512pt" xmlns="http://www.w3.org/2000/svg">
  <path d="m398.804688 99.363281-97.167969-97.167969c-1.324219-1.320312-3.25-2.195312-5.304688-2.195312h-273.332031c-12.683594 0-23 10.316406-23 23v466c0 12.683594 10.316406 23 23 23h160c4.140625 0 7.5-3.355469 7.5-7.5s-3.359375-7.5-7.5-7.5h-160c-4.410156 0-8-3.589844-8-8v-466c0-4.410156 3.589844-8 8-8h265.832031v74.167969c0 12.679687 10.316407 23 23 23h74.167969v126.332031c0 4.140625 3.355469 7.5 7.5 7.5 4.140625 0 7.5-3.359375 7.5-7.5v-133.832031c0-2.085938-.867188-3.976563-2.195312-5.304688zm-86.972657-2.199219c-4.410156 0-8-3.585937-8-7.996093v-63.558594l71.558594 71.554687zm0 0" style="opacity: 0.75;"/>
  <path d="m276.734375 323.867188c71.285156-71.152344 20.242187-193.566407-80.070313-193.566407-62.496093 0-113.339843 50.847657-113.339843 113.34375 0 62.496094 50.84375 113.34375 113.339843 113.34375 29.761719 0 58.539063-11.632812 80.070313-33.121093zm17.992187-87.722657h-90.558593v-90.558593c43.640625 2.726562 85.992187 38.054687 90.558593 90.558593zm-23.515624 71.570313-56.460938-56.570313h79.976562c-1.601562 21.050781-9.90625 40.757813-23.515624 56.570313zm-10.621094 10.597656c-6.097656 5.226562-12.84375 9.722656-20.09375 13.347656l-22.917969-56.445312zm-162.265625-74.667969c0-51.703125 40.109375-94.214843 90.84375-98.058593v98.058593c0 .941407.1875 1.957031.597656 2.9375l36.839844 90.738281c-9.445313 3.027344-19.503907 4.664063-29.9375 4.664063-54.226563 0-98.34375-44.113281-98.34375-98.339844zm0 0" style="opacity: 0.75;"/>
  <path d="m90.300781 392.574219h-7.128906c-4.144531 0-7.5 3.355469-7.5 7.5 0 4.140625 3.355469 7.5 7.5 7.5h7.128906c4.140625 0 7.5-3.359375 7.5-7.5 0-4.144531-3.359375-7.5-7.5-7.5zm0 0" style="opacity: 0.75;"/>
  <path d="m175.835938 392.574219h-57.023438c-4.144531 0-7.5 3.355469-7.5 7.5 0 4.140625 3.355469 7.5 7.5 7.5h57.023438c4.144531 0 7.5-3.359375 7.5-7.5 0-4.144531-3.355469-7.5-7.5-7.5zm0 0" style="opacity: 0.75;"/>
  <path d="m225.179688 81.105469c4.144531 0 7.5-3.359375 7.5-7.503907 0-4.140624-3.355469-7.5-7.5-7.5h-57.023438c-4.144531 0-7.5 3.359376-7.5 7.5 0 4.144532 3.355469 7.503907 7.5 7.503907zm0 0" style="opacity: 0.75;"/>
  <path d="m90.300781 425.363281h-7.128906c-4.144531 0-7.5 3.355469-7.5 7.5 0 4.140625 3.355469 7.5 7.5 7.5h7.128906c4.140625 0 7.5-3.359375 7.5-7.5 0-4.144531-3.359375-7.5-7.5-7.5zm0 0" style="opacity: 0.75;"/>
  <path d="m175.835938 425.363281h-57.023438c-4.144531 0-7.5 3.355469-7.5 7.5 0 4.140625 3.355469 7.5 7.5 7.5h57.023438c4.144531 0 7.5-3.359375 7.5-7.5 0-4.144531-3.355469-7.5-7.5-7.5zm0 0" style="opacity: 0.75;"/>
  <path d="m217.496094 392.574219c-4.140625 0-7.5 3.355469-7.5 7.5 0 4.140625 3.359375 7.5 7.5 7.5h7.128906c4.144531 0 7.5-3.359375 7.5-7.5 0-4.144531-3.355469-7.5-7.5-7.5zm0 0" style="opacity: 0.75;"/>
  <path d="m310.164062 392.574219h-57.027343c-4.140625 0-7.5 3.355469-7.5 7.5 0 4.140625 3.359375 7.5 7.5 7.5h57.027343c4.140626 0 7.5-3.359375 7.5-7.5 0-4.144531-3.359374-7.5-7.5-7.5zm0 0" style="opacity: 0.75;"/>
  <path d="m217.496094 440.363281h7.128906c4.144531 0 7.5-3.359375 7.5-7.5 0-4.144531-3.355469-7.5-7.5-7.5h-7.128906c-4.140625 0-7.5 3.355469-7.5 7.5 0 4.140625 3.359375 7.5 7.5 7.5zm0 0" style="opacity: 0.75;"/>
  <path d="m310.164062 425.363281h-57.027343c-4.140625 0-7.5 3.355469-7.5 7.5 0 4.140625 3.359375 7.5 7.5 7.5h57.027343c4.140626 0 7.5-3.359375 7.5-7.5 0-4.144531-3.359374-7.5-7.5-7.5zm0 0" style="opacity: 0.75;"/>
  <path d="m393.5 266c-4.144531 0-7.5 3.355469-7.5 7.5v215.5c0 4.410156-3.589844 8-8 8h-160c-4.144531 0-7.5 3.355469-7.5 7.5s3.355469 7.5 7.5 7.5h160c12.683594 0 23-10.316406 23-23v-215.5c0-4.140625-3.359375-7.5-7.5-7.5zm0 0" style="opacity: 0.75;"/>
</svg>