<?xml version="1.0" encoding="utf-8"?>
<svg version="1.1" id="Capa_1" x="0px" y="0px" viewBox="0 0 329.805 329.805" style="enable-background:new 0 0 329.805 329.805;" xmlns="http://www.w3.org/2000/svg">
  <g style="opacity: 0.75;">
    <path d="M261.228,15h56.152c4.142,0,7.5-3.358,7.5-7.5s-3.358-7.5-7.5-7.5h-56.152c-4.142,0-7.5,3.358-7.5,7.5 S257.085,15,261.228,15z"/>
    <path d="M314.353,314.805h-92.151l-19.717-19.717c17.918-9.185,33.79-22.424,46.429-39.154c0.002-0.002,0.004-0.004,0.005-0.006 c17.899-23.697,27.36-51.947,27.36-81.696c0-12.311-1.687-24.6-5.014-36.525c-9.948-35.65-33.858-64.733-64.778-81.976 l15.714-15.714h92.151c4.142,0,7.5-3.358,7.5-7.5s-3.358-7.5-7.5-7.5h-95.257c-1.989,0-3.897,0.79-5.303,2.197L192.19,48.815 c-16.042-6.634-33.507-10.26-51.587-10.26c-23.469,0-46.633,6.123-66.991,17.709c-0.005,0.003-0.01,0.005-0.015,0.008 c-2.702,1.535-4.086,4.494-3.746,7.398c0.008,0.065,0.023,0.13,0.033,0.195c0.025,0.176,0.05,0.353,0.089,0.528 c0.035,0.16,0.083,0.317,0.129,0.476c0.023,0.08,0.039,0.16,0.065,0.239c0.154,0.474,0.358,0.94,0.614,1.39l24.477,43.091 c-20.934,14.709-33.664,38.848-33.664,64.643c0,17.307,5.497,33.738,15.895,47.518c8.535,11.31,20.129,20.212,33.17,25.583 l-12.105,40.022c-21.418-7.995-40.521-22.197-54.365-40.551c-15.873-21.042-24.262-46.137-24.262-72.571 c0-27.866,9.732-55.048,27.404-76.538c2.631-3.199,2.17-7.926-1.029-10.557c-3.198-2.63-7.925-2.17-10.557,1.029 C15.87,112.333,4.925,142.899,4.925,174.231c0,29.72,9.436,57.938,27.287,81.604c17.261,22.882,41.805,40.027,69.11,48.275 c12.736,3.847,25.952,5.798,39.28,5.798c16.406,0,32.305-2.884,47.14-8.351l26.05,26.05c1.406,1.407,3.314,2.197,5.303,2.197 h95.257c4.142,0,7.5-3.358,7.5-7.5S318.495,314.805,314.353,314.805z M180.573,60.431L167.91,73.095 c-2.929,2.929-2.929,7.678,0,10.606c1.464,1.464,3.384,2.197,5.303,2.197s3.839-0.732,5.303-2.197l16.881-16.881 c29.334,15.021,52.17,41.767,61.42,74.917c2.961,10.613,4.462,21.546,4.462,32.494c0,23.943-6.89,46.794-19.995,66.538 l-33.418-25.203c7.706-12.448,11.746-26.596,11.746-41.334c0-4.619-0.43-9.286-1.282-13.943l19.591-5.477 c3.989-1.115,6.319-5.253,5.204-9.243c-1.115-3.989-5.251-6.318-9.243-5.204l-19.616,5.484 c-11.621-30.147-40.907-50.628-73.664-50.628c-11.127,0-22.161,2.386-32.31,6.947l-8.549-15.051l-12.105-21.31 c16.431-8.035,34.593-12.253,52.964-12.253C154.491,53.554,167.964,55.975,180.573,60.431z M76.592,174.231 c0-22.924,12.423-44.238,32.421-55.625c9.635-5.486,20.559-8.386,31.589-8.386c28.576,0,53.904,19.24,61.592,46.787 c0,0,0,0.001,0,0.001c1.604,5.75,2.418,11.544,2.418,17.222c0,13.955-4.482,27.265-12.962,38.491 c-12.251,16.218-30.857,25.519-51.048,25.519c-6.257,0-12.491-0.925-18.529-2.748c-0.001,0-0.001,0-0.002-0.001 C95.294,227.403,76.592,202.212,76.592,174.231z M140.603,294.909c-9.347,0-18.631-1.078-27.692-3.211l7.968-26.345l4.135-13.67 c5.137,1.036,10.356,1.56,15.59,1.56c22.428,0,43.266-9.283,58.226-25.705l33.418,25.203 c-11.47,13.422-25.435,23.949-40.981,31.129l-12.749-12.749c-2.929-2.929-7.678-2.929-10.606,0c-2.929,2.929-2.929,7.678,0,10.606 l7.987,7.987C164.637,293.126,152.776,294.909,140.603,294.909z"/>
    <path d="M317.379,289.431h-56.152c-4.142,0-7.5,3.358-7.5,7.5s3.358,7.5,7.5,7.5h56.152c4.142,0,7.5-3.358,7.5-7.5 S321.521,289.431,317.379,289.431z"/>
  </g>
  <g style="opacity: 0.75;"/>
  <g style="opacity: 0.75;"/>
  <g style="opacity: 0.75;"/>
  <g style="opacity: 0.75;"/>
  <g style="opacity: 0.75;"/>
  <g style="opacity: 0.75;"/>
  <g style="opacity: 0.75;"/>
  <g style="opacity: 0.75;"/>
  <g style="opacity: 0.75;"/>
  <g style="opacity: 0.75;"/>
  <g style="opacity: 0.75;"/>
  <g style="opacity: 0.75;"/>
  <g style="opacity: 0.75;"/>
  <g style="opacity: 0.75;"/>
  <g style="opacity: 0.75;"/>
</svg>