<?xml version="1.0" encoding="utf-8"?>
<svg version="1.1" id="Layer_1" x="0px" y="0px" viewBox="0 0 512 512" style="enable-background:new 0 0 512 512;" xmlns="http://www.w3.org/2000/svg">
  <g style="opacity: 0.75;">
    <g>
      <path d="M497.043,169.386l-54.19,26.612c9.711,30.204,11.94,62.294,6.399,93.968c-6.97,39.843-25.822,76.072-54.519,104.769 c-38.249,38.249-88.492,57.373-138.734,57.373c-50.242,0-100.485-19.124-138.734-57.373C80.21,357.677,59.801,308.407,59.801,256 c0-52.407,20.409-101.677,57.466-138.734c22.022-22.022,49.238-38.653,78.706-48.097c25.397-8.139,52.579-10.999,79.198-8.416 L289.946,2.38C278.684,0.886,267.343,0.121,256,0.121c-65.556,0-131.112,24.953-181.02,74.86C26.628,123.333,0,187.62,0,256 s26.628,132.667,74.98,181.019c99.816,99.814,262.224,99.814,362.039,0C485.372,388.667,512,324.38,512,256 C512,226.008,506.875,196.804,497.043,169.386z M176.784,25.001c6.595-6.595,17.287-6.595,23.882,0 c6.595,6.595,6.595,17.287,0,23.882c-6.595,6.595-17.287,6.595-23.882,0C170.19,42.289,170.19,31.596,176.784,25.001z M67.319,375.831c-6.595,6.595-17.287,6.595-23.882,0c-6.595-6.595-6.595-17.287,0-23.882c6.595-6.595,17.287-6.595,23.882,0 C73.914,358.544,73.914,369.236,67.319,375.831z M336.864,478.702c-6.595,6.595-17.287,6.595-23.882,0 c-6.595-6.595-6.595-17.287,0-23.882c6.595-6.595,17.287-6.595,23.882,0C343.459,461.415,343.459,472.107,336.864,478.702z"/>
    </g>
  </g>
  <g style="opacity: 0.75;">
    <g>
      <path d="M414.967,209.692l-54.97,26.995c6.308,33.84-4.205,69.086-29.214,94.096C310.166,351.4,283.082,361.71,256,361.71 c-27.082,0-54.166-10.309-74.783-30.927c-41.235-41.235-41.235-108.331,0-149.566c19.243-19.243,44.587-30.094,71.289-30.928 l15.048-59.447c-47.952-3.438-94.24,13.707-128.623,48.089c-31.27,31.27-48.492,72.846-48.492,117.069 c0,44.223,17.221,85.799,48.492,117.069c64.553,64.551,169.585,64.551,234.138,0C415.914,330.223,431.5,266.927,414.967,209.692z M361.665,361.665c-6.595,6.595-17.287,6.595-23.882,0c-6.595-6.595-6.595-17.287,0-23.882c6.595-6.595,17.287-6.595,23.882,0 C368.26,344.378,368.26,355.07,361.665,361.665z"/>
    </g>
  </g>
  <g style="opacity: 0.75;">
    <g>
      <path d="M330.969,250.941l-66.099,32.46c-3.698,1.815-7.828,2.775-11.944,2.775c-6.195,0-12.256-2.147-17.067-6.047 c-8.174-6.626-11.789-17.5-9.207-27.702l17.894-70.69c-15.616,2.382-30.175,9.656-41.665,21.145 c-29.288,29.289-29.288,76.947,0,106.236c14.643,14.643,33.884,21.965,53.118,21.967c19.239,0.001,38.472-7.321,53.118-21.967 C324.755,293.48,332.412,272.207,330.969,250.941z"/>
    </g>
  </g>
  <g style="opacity: 0.75;">
    <g>
      <path d="M440.975,71.024C404.933,34.982,360.22,10.768,311.544,0.296l-65.09,257.143c-0.636,2.512,0.253,5.191,2.267,6.822 c1.982,1.607,4.85,1.934,7.146,0.805l238.501-117.123C481.535,119.668,463.588,93.637,440.975,71.024z"/>
    </g>
  </g>
  <g style="opacity: 0.75;"/>
  <g style="opacity: 0.75;"/>
  <g style="opacity: 0.75;"/>
  <g style="opacity: 0.75;"/>
  <g style="opacity: 0.75;"/>
  <g style="opacity: 0.75;"/>
  <g style="opacity: 0.75;"/>
  <g style="opacity: 0.75;"/>
  <g style="opacity: 0.75;"/>
  <g style="opacity: 0.75;"/>
  <g style="opacity: 0.75;"/>
  <g style="opacity: 0.75;"/>
  <g style="opacity: 0.75;"/>
  <g style="opacity: 0.75;"/>
  <g style="opacity: 0.75;"/>
</svg>