<?xml version="1.0" encoding="utf-8"?>
<svg height="512pt" viewBox="0 -36 512 512" width="512pt" xmlns="http://www.w3.org/2000/svg">
  <path d="m492 120h-232c-11.046875 0-20-8.953125-20-20s8.953125-20 20-20h232c11.046875 0 20 8.953125 20 20s-8.953125 20-20 20zm-392-40c-11.027344 0-20 8.972656-20 20s8.972656 20 20 20 20-8.972656 20-20-8.972656-20-20-20zm17.488281 358.46875c10.875-1.929688 18.132813-12.308594 16.203125-23.183594-1.925781-10.878906-12.304687-18.132812-23.179687-16.207031-3.445313.613281-6.980469.921875-10.511719.921875-33.085938 0-60-26.914062-60-60s26.914062-60 60-60 60 26.914062 60 60c0 4.304688-.457031 8.59375-1.363281 12.753906-2.34375 10.796875 4.507812 21.445313 15.300781 23.789063 10.792969 2.351562 21.445312-4.503907 23.789062-15.296875 1.507813-6.945313 2.273438-14.09375 2.273438-21.246094 0-55.140625-44.859375-100-100-100s-100 44.859375-100 100 44.859375 100 100 100c5.863281 0 11.746094-.515625 17.488281-1.53125zm0-240c10.875-1.929688 18.132813-12.308594 16.203125-23.183594-1.925781-10.878906-12.304687-18.132812-23.179687-16.207031-3.445313.613281-6.980469.921875-10.511719.921875-33.085938 0-60-26.914062-60-60s26.914062-60 60-60 60 26.914062 60 60c0 4.304688-.457031 8.59375-1.363281 12.753906-2.34375 10.796875 4.507812 21.445313 15.300781 23.789063 10.792969 2.351562 21.445312-4.503907 23.789062-15.296875 1.507813-6.945313 2.273438-14.09375 2.273438-21.246094 0-55.140625-44.859375-100-100-100s-100 44.859375-100 100 44.859375 100 100 100c5.863281 0 11.746094-.515625 17.488281-1.53125zm394.511719 141.53125c0-11.046875-8.953125-20-20-20h-232c-11.046875 0-20 8.953125-20 20s8.953125 20 20 20h232c11.046875 0 20-8.953125 20-20zm0 0" style="opacity: 0.75;"/>
</svg>