<?xml version="1.0" encoding="utf-8"?>
<svg version="1.1" id="Layer_1" x="0px" y="0px" viewBox="0 0 512 512" style="enable-background:new 0 0 512 512;" xmlns="http://www.w3.org/2000/svg">
  <g style="opacity: 0.75;">
    <g>
      <polygon points="194.433,362.311 183.685,373.061 183.685,344.116 167.946,344.116 167.946,372.507 157.75,362.311 &#10;&#9;&#9;&#9;146.438,373.624 176.092,403.277 205.746,373.624 &#9;&#9;"/>
    </g>
  </g>
  <g style="opacity: 0.75;">
    <g>
      <rect x="167.947" y="287.459" width="15.739" height="40.922"/>
    </g>
  </g>
  <g style="opacity: 0.75;">
    <g>
      <polygon points="192.079,240.238 192.079,255.977 295.957,255.977 295.957,496.261 55.673,496.261 55.673,255.977 &#10;&#9;&#9;&#9;160.601,255.977 160.601,240.238 39.934,240.238 39.934,512 311.696,512 311.696,240.238 &#9;&#9;"/>
    </g>
  </g>
  <g style="opacity: 0.75;">
    <g>
      <polygon points="87.152,464.783 87.152,432.255 71.413,432.255 71.413,480.522 128.073,480.522 128.073,464.783 &#9;&#9;"/>
    </g>
  </g>
  <g style="opacity: 0.75;">
    <g>
      <rect x="143.813" y="464.786" width="32.527" height="15.739"/>
    </g>
  </g>
  <g style="opacity: 0.75;">
    <g>
      <rect x="192.08" y="464.786" width="15.739" height="15.739"/>
    </g>
  </g>
  <g style="opacity: 0.75;">
    <g>
      <path d="M136.095,0v175.984h31.851v95.733h15.739v-95.733h288.381V0H136.095z M200.473,159.986h-48.379V15.998h48.379V159.986z M264.479,159.986h-48.267V15.998h48.267V159.986z M328.484,159.986h-48.267V15.998h48.267V159.986z M392.49,159.986h-48.267 V15.998h48.267V159.986z M456.066,159.986h-47.837V15.998h47.837V159.986z"/>
    </g>
  </g>
  <g style="opacity: 0.75;"/>
  <g style="opacity: 0.75;"/>
  <g style="opacity: 0.75;"/>
  <g style="opacity: 0.75;"/>
  <g style="opacity: 0.75;"/>
  <g style="opacity: 0.75;"/>
  <g style="opacity: 0.75;"/>
  <g style="opacity: 0.75;"/>
  <g style="opacity: 0.75;"/>
  <g style="opacity: 0.75;"/>
  <g style="opacity: 0.75;"/>
  <g style="opacity: 0.75;"/>
  <g style="opacity: 0.75;"/>
  <g style="opacity: 0.75;"/>
  <g style="opacity: 0.75;"/>
</svg>