<?xml version="1.0" encoding="utf-8"?>
<svg height="546pt" viewBox="-17 -17 546 546.66672" width="546pt" xmlns="http://www.w3.org/2000/svg">
  <path d="m10.332031 25.648438c-5.519531 0-10 4.476562-10 10v466.851562c.128907 5.570312 4.6875 10.019531 10.265625 10h472.429688c5.523437 0 10-4.476562 10-10s-4.476563-10-10-10h-462.695313v-456.851562c0-5.523438-4.476562-10-10-10zm0 0" style="opacity: 0.75;"/>
  <path d="m125.519531 112.5c-28.0625 0-50.804687 22.742188-50.804687 50.800781 0 28.0625 22.742187 50.804688 50.804687 50.804688 28.054688 0 50.800781-22.742188 50.800781-50.804688-.03125-28.042969-22.757812-50.773437-50.800781-50.800781zm0 81.605469c-17.011719 0-30.804687-13.792969-30.804687-30.804688s13.792968-30.800781 30.804687-30.800781 30.800781 13.789062 30.800781 30.800781c-.019531 17.007813-13.800781 30.785157-30.800781 30.804688zm0 0" style="opacity: 0.75;"/>
  <path d="m37.21875 300.800781c0 28.0625 22.742188 50.804688 50.800781 50.804688 28.054688 0 50.800781-22.75 50.800781-50.804688 0-28.058593-22.746093-50.800781-50.800781-50.800781-28.046875.035156-50.773437 22.757812-50.800781 50.800781zm50.800781-30.800781c17.011719 0 30.800781 13.789062 30.800781 30.800781s-13.789062 30.804688-30.800781 30.804688-30.800781-13.792969-30.800781-30.804688c.015625-17.003906 13.792969-30.78125 30.800781-30.800781zm0 0" style="opacity: 0.75;"/>
  <path d="m149.71875 250.800781c0 28.0625 22.742188 50.804688 50.800781 50.804688 28.054688 0 50.800781-22.75 50.800781-50.804688 0-28.058593-22.746093-50.800781-50.800781-50.800781-28.046875.035156-50.773437 22.757812-50.800781 50.800781zm50.800781-30.800781c17.011719 0 30.800781 13.789062 30.800781 30.800781s-13.789062 30.804688-30.800781 30.804688-30.800781-13.792969-30.800781-30.804688c.015625-17.003906 13.792969-30.78125 30.800781-30.800781zm0 0" style="opacity: 0.75;"/>
  <path d="m188.019531 325c-28.0625 0-50.804687 22.742188-50.804687 50.800781 0 28.0625 22.742187 50.804688 50.804687 50.804688 28.054688 0 50.800781-22.742188 50.800781-50.804688-.03125-28.042969-22.757812-50.773437-50.800781-50.800781zm0 81.605469c-17.011719 0-30.804687-13.792969-30.804687-30.804688s13.792968-30.800781 30.804687-30.800781 30.800781 13.789062 30.800781 30.800781c-.019531 17.007813-13.800781 30.785157-30.800781 30.804688zm0 0" style="opacity: 0.75;"/>
  <path d="m300.519531 287.5c-28.0625 0-50.804687 22.742188-50.804687 50.800781 0 28.0625 22.742187 50.804688 50.804687 50.804688 28.054688 0 50.800781-22.742188 50.800781-50.804688-.03125-28.042969-22.757812-50.773437-50.800781-50.800781zm0 81.605469c-17.011719 0-30.804687-13.792969-30.804687-30.804688s13.792968-30.800781 30.804687-30.800781 30.800781 13.789062 30.800781 30.800781c-.019531 17.007813-13.800781 30.785157-30.800781 30.804688zm0 0" style="opacity: 0.75;"/>
  <path d="m274.71875 225.800781c0 28.0625 22.742188 50.804688 50.800781 50.804688 28.054688 0 50.800781-22.75 50.800781-50.804688 0-28.058593-22.746093-50.800781-50.800781-50.800781-28.046875.035156-50.773437 22.757812-50.800781 50.800781zm50.800781-30.800781c17.011719 0 30.800781 13.789062 30.800781 30.800781s-13.789062 30.804688-30.800781 30.804688-30.800781-13.792969-30.800781-30.804688c.015625-17.003906 13.792969-30.78125 30.800781-30.800781zm0 0" style="opacity: 0.75;"/>
  <path d="m250.519531 75c-28.0625 0-50.804687 22.742188-50.804687 50.800781 0 28.0625 22.742187 50.804688 50.804687 50.804688 28.054688 0 50.800781-22.742188 50.800781-50.804688-.03125-28.042969-22.757812-50.773437-50.800781-50.800781zm0 81.605469c-17.011719 0-30.804687-13.792969-30.804687-30.804688s13.792968-30.800781 30.804687-30.800781 30.800781 13.789062 30.800781 30.800781c-.019531 17.007813-13.800781 30.785157-30.800781 30.804688zm0 0" style="opacity: 0.75;"/>
  <path d="m354.269531 41.25c-28.0625 0-50.804687 22.742188-50.804687 50.800781 0 28.0625 22.742187 50.804688 50.804687 50.804688 28.054688 0 50.800781-22.742188 50.800781-50.804688-.03125-28.042969-22.757812-50.773437-50.800781-50.800781zm0 81.605469c-17.011719 0-30.804687-13.792969-30.804687-30.804688s13.792968-30.800781 30.804687-30.800781 30.800781 13.789062 30.800781 30.800781c-.019531 17.007813-13.800781 30.785157-30.800781 30.804688zm0 0" style="opacity: 0.75;"/>
  <path d="m450.519531 214.105469c28.054688 0 50.800781-22.742188 50.800781-50.800781 0-28.0625-22.746093-50.804688-50.800781-50.804688-28.058593 0-50.800781 22.742188-50.800781 50.800781.027344 28.046875 22.753906 50.769531 50.800781 50.804688zm0-81.605469c17.011719 0 30.800781 13.789062 30.800781 30.800781s-13.789062 30.804688-30.800781 30.804688-30.800781-13.792969-30.800781-30.804688c.015625-17.003906 13.792969-30.78125 30.800781-30.800781zm0 0" style="opacity: 0.75;"/>
  <path d="m461.769531 101.605469c28.054688 0 50.800781-22.742188 50.800781-50.800781 0-28.0625-22.746093-50.804688-50.800781-50.804688-28.058593 0-50.800781 22.742188-50.800781 50.800781.027344 28.046875 22.753906 50.769531 50.800781 50.804688zm0-81.605469c17.011719 0 30.800781 13.789062 30.800781 30.800781s-13.789062 30.804688-30.800781 30.804688-30.800781-13.792969-30.800781-30.804688c.015625-17.003906 13.792969-30.78125 30.800781-30.800781zm0 0" style="opacity: 0.75;"/>
  <path d="m476.320312 288.300781c0-28.058593-22.746093-50.800781-50.800781-50.800781-28.0625 0-50.804687 22.742188-50.804687 50.800781 0 28.0625 22.742187 50.804688 50.804687 50.804688 28.042969-.035157 50.769531-22.757813 50.800781-50.804688zm-50.800781 30.804688c-17.011719 0-30.804687-13.792969-30.804687-30.804688s13.792968-30.800781 30.804687-30.800781 30.800781 13.789062 30.800781 30.800781c-.019531 17.007813-13.800781 30.785157-30.800781 30.804688zm0 0" style="opacity: 0.75;"/>
  <path d="m400.519531 451.605469c28.054688 0 50.800781-22.742188 50.800781-50.800781 0-28.0625-22.746093-50.804688-50.800781-50.804688-28.058593 0-50.800781 22.742188-50.800781 50.800781.027344 28.046875 22.753906 50.769531 50.800781 50.804688zm0-81.605469c17.011719 0 30.800781 13.789062 30.800781 30.800781s-13.789062 30.804688-30.800781 30.804688-30.800781-13.792969-30.800781-30.804688c.015625-17.003906 13.792969-30.78125 30.800781-30.800781zm0 0" style="opacity: 0.75;"/>
  <path d="m88.019531 475.355469c28.054688 0 50.800781-22.742188 50.800781-50.800781 0-28.0625-22.746093-50.804688-50.800781-50.804688-28.058593 0-50.800781 22.742188-50.800781 50.800781.027344 28.046875 22.753906 50.769531 50.800781 50.804688zm0-81.605469c17.011719 0 30.800781 13.789062 30.800781 30.800781s-13.789062 30.804688-30.800781 30.804688-30.800781-13.792969-30.800781-30.804688c.015625-17.003906 13.792969-30.78125 30.800781-30.800781zm0 0" style="opacity: 0.75;"/>
</svg>