<?xml version="1.0" encoding="utf-8"?>
<svg version="1.1" id="Capa_1" x="0px" y="0px" width="32px" height="32.001px" viewBox="0 0 32 32.001" style="enable-background:new 0 0 32 32.001;" xmlns="http://www.w3.org/2000/svg">
  <g style="opacity: 0.75;">
    <g>
      <path d="M11.695,17.555C8.37,16.952,7.536,13.74,7.5,13.592c-0.164-0.686-0.846-1.105-1.538-0.949 c-0.688,0.161-1.116,0.851-0.956,1.539c0.048,0.203,1.223,4.986,6.232,5.895c0.079,0.014,0.155,0.02,0.23,0.02 c0.608,0,1.148-0.434,1.26-1.053C12.854,18.35,12.392,17.684,11.695,17.555z"/>
      <path d="M26.509,21.075c-0.36-0.36-0.849-0.562-1.358-0.562c-0.508,0-0.998,0.202-1.355,0.563l-1.33-1.33 c3.547-4.856,3.129-11.724-1.254-16.106C18.864,1.292,15.745,0,12.426,0C9.107,0,5.987,1.292,3.642,3.64 C1.292,5.986,0,9.106,0,12.425C0,15.743,1.292,18.863,3.64,21.21c2.346,2.349,5.466,3.642,8.785,3.642 c2.67,0,5.209-0.839,7.322-2.387l1.329,1.328c-0.361,0.359-0.563,0.85-0.563,1.357c0,0.51,0.202,0.998,0.563,1.358l4.89,4.892 c0.801,0.801,2.098,0.801,2.898,0l2.537-2.537c0.8-0.801,0.8-2.098,0-2.897L26.509,21.075z M12.424,21.006 c-2.291,0-4.448-0.895-6.067-2.514c-1.62-1.62-2.513-3.775-2.513-6.067s0.893-4.448,2.513-6.069 c1.619-1.619,3.776-2.513,6.067-2.513s4.447,0.894,6.067,2.513c3.345,3.347,3.345,8.79,0,12.136 C16.872,20.111,14.716,21.006,12.424,21.006z"/>
      <circle cx="6.52" cy="10.051" r="1.255"/>
    </g>
  </g>
  <g style="opacity: 0.75;"/>
  <g style="opacity: 0.75;"/>
  <g style="opacity: 0.75;"/>
  <g style="opacity: 0.75;"/>
  <g style="opacity: 0.75;"/>
  <g style="opacity: 0.75;"/>
  <g style="opacity: 0.75;"/>
  <g style="opacity: 0.75;"/>
  <g style="opacity: 0.75;"/>
  <g style="opacity: 0.75;"/>
  <g style="opacity: 0.75;"/>
  <g style="opacity: 0.75;"/>
  <g style="opacity: 0.75;"/>
  <g style="opacity: 0.75;"/>
  <g style="opacity: 0.75;"/>
</svg>