<svg xmlns="http://www.w3.org/2000/svg" xmlns:xlink="http://www.w3.org/1999/xlink" xmlns:lucid="lucid" width="668.45" height="438.21"><g transform="translate(5.359971990817115 -109.85212582594369)" lucid:page-tab-id="0_0"><path d="M72.08 129.85h541.64v397.03H72.08z" stroke="#000" stroke-width="9" fill-opacity="0"/><path d="M73.08 130.85H198.2v397.03H73.08zM488.65 129.9h125.13V525H488.65z" stroke="#000" stroke-width="9" fill="#999"/><path d="M14.64 146.1h240v381.96h-240z" stroke="#000" stroke-opacity="0" stroke-width="2" fill="#fff" fill-opacity="0"/><use xlink:href="#a" transform="matrix(1,0,0,1,19.640028009182885,151.10679402471033) translate(69.46227669784119 241.1044718950493)"/><path d="M455.4 216.85h187.7v217.3H455.4z" stroke="#000" stroke-opacity="0" stroke-width="2" fill="#fff" fill-opacity="0"/><use xlink:href="#b" transform="matrix(1,0,0,1,460.39954395287725,221.84839126688206) translate(28.729483864789813 165.31341568514796)"/><defs><path fill="#fff" d="M16-82v-28h88v28H16" id="c"/><use transform="matrix(0.7653398874312405,0,0,0.7653398874312405,0,0)" xlink:href="#c" id="a"/><path fill="#fff" d="M118-107v75H92v-75H18v-26h74v-75h26v75h74v26h-74" id="d"/><use transform="matrix(0.5740049155734304,0,0,0.5740049155734304,0,0)" xlink:href="#d" id="b"/></defs></g></svg>