<?xml version="1.0" encoding="utf-8"?>
<svg version="1.1" id="Capa_1" x="0px" y="0px" viewBox="0 0 100 100" style="enable-background:new 0 0 100 100;" xmlns="http://www.w3.org/2000/svg">
  <g style="opacity: 0.75;">
    <g>
      <g>
        <polygon style="fill:#1D1D1B;" points="68.75,56.25 43.75,56.25 43.75,43.75 18.75,62.5 43.75,81.25 43.75,68.75 68.75,68.75 &#10;&#9;&#9;&#9;&#9;81.25,68.75 81.25,56.25 81.25,18.75 68.75,18.75 &#9;&#9;&#9;"/>
        <path style="fill:#1D1D1B;" d="M87.5,0h-75C5.625,0,0,5.625,0,12.5v75C0,94.388,5.625,100,12.5,100h75 c6.881,0,12.5-5.612,12.5-12.5v-75C100,5.625,94.381,0,87.5,0z M93.75,87.5c0,3.456-2.8,6.25-6.25,6.25h-75 c-3.444,0-6.25-2.794-6.25-6.25v-75c0-3.444,2.806-6.25,6.25-6.25h75c3.45,0,6.25,2.806,6.25,6.25V87.5z"/>
      </g>
    </g>
  </g>
  <g style="opacity: 0.75;"/>
  <g style="opacity: 0.75;"/>
  <g style="opacity: 0.75;"/>
  <g style="opacity: 0.75;"/>
  <g style="opacity: 0.75;"/>
  <g style="opacity: 0.75;"/>
  <g style="opacity: 0.75;"/>
  <g style="opacity: 0.75;"/>
  <g style="opacity: 0.75;"/>
  <g style="opacity: 0.75;"/>
  <g style="opacity: 0.75;"/>
  <g style="opacity: 0.75;"/>
  <g style="opacity: 0.75;"/>
  <g style="opacity: 0.75;"/>
  <g style="opacity: 0.75;"/>
</svg>