<?xml version="1.0" encoding="utf-8"?>
<svg height="512pt" viewBox="-40 0 512 512" width="512pt" xmlns="http://www.w3.org/2000/svg">
  <path d="m386.992188 0h-341.992188c-24.8125 0-45 20.1875-45 45v422c0 24.8125 20.1875 45 45 45h341.992188c24.8125 0 45-20.1875 45-45v-422c0-24.8125-20.1875-45-45-45zm15 467c0 8.269531-6.730469 15-15 15h-341.992188c-8.269531 0-15-6.730469-15-15v-422c0-8.269531 6.730469-15 15-15h341.992188c8.269531 0 15 6.730469 15 15zm0 0" style="opacity: 0.75;"/>
  <path d="m304.324219 72.710938h-176.65625c-8.28125 0-15 6.714843-15 15v336.578124c0 8.285157 6.71875 15 15 15h176.65625c8.28125 0 15-6.714843 15-15v-336.578124c0-8.285157-6.71875-15-15-15zm-15 30v138.289062h-146.65625v-138.289062zm-146.65625 306.578124v-138.289062h146.65625v138.289062zm0 0" style="opacity: 0.75;"/>
  <path d="m215.996094 300.144531c-8.285156 0-15 6.714844-15 15v47.71875c0 8.285157 6.714844 15 15 15s15-6.714843 15-15v-47.71875c0-8.285156-6.714844-15-15-15zm0 0" style="opacity: 0.75;"/>
  <path d="m215.996094 214.394531c22.347656 0 40.53125-18.179687 40.53125-40.527343 0-22.347657-18.183594-40.53125-40.53125-40.53125s-40.53125 18.183593-40.53125 40.53125c0 22.347656 18.183594 40.527343 40.53125 40.527343zm0-51.058593c5.808594 0 10.53125 4.722656 10.53125 10.527343 0 5.808594-4.726563 10.53125-10.53125 10.53125-5.804688 0-10.53125-4.722656-10.53125-10.53125 0-5.804687 4.722656-10.527343 10.53125-10.527343zm0 0" style="opacity: 0.75;"/>
</svg>