<?xml version="1.0" encoding="utf-8"?>
<svg version="1.1" id="Capa_1" x="0px" y="0px" width="612px" height="612px" viewBox="0 0 612 612" style="enable-background:new 0 0 612 612;" xmlns="http://www.w3.org/2000/svg">
  <g style="opacity: 0.75;">
    <g id="Phone">
      <g>
        <path d="M559.959,383.188l-99.145-50.93c-24.27-12.508-55.653-8.243-75.772,10.251l-11.571,10.595 c-11.226,10.328-28.726,12.719-42.323,5.681c-33.813-17.404-60.856-44.446-78.279-78.183c-7.133-13.847-4.857-30.83,5.718-42.305 l10.615-11.551c11.379-12.374,17.633-28.439,17.633-45.211c0-10.557-2.563-21.114-7.401-30.524l-50.987-99.067 C211.942,19.928,179.333,0,143.359,0c-21.152,0-41.195,6.771-57.949,19.565L55.27,42.553 c-47.334,36.07-66.785,98.36-48.444,154.989c61.085,188.382,209.132,340.311,396.021,406.426 c15.09,5.336,30.868,8.032,46.876,8.032c37.428,0,73.918-15.204,100.139-41.769l34.521-34.903 c17.824-18.016,27.616-41.846,27.616-67.109C611.999,432.244,592.051,399.674,559.959,383.188z M543.531,495.051l-34.501,34.903 c-22.147,22.414-57.223,30.504-87.058,19.947C251.817,489.734,117.024,351.384,61.409,179.871 c-10.844-33.526,0.65-70.38,28.668-91.743l30.16-23.007c6.675-5.087,14.669-7.784,23.122-7.784 c14.382,0,27.444,7.975,34.042,20.846l50.968,99.067c0.688,1.339,1.052,2.792,1.052,4.303c0,3.06-1.377,5.183-2.543,6.445 l-10.595,11.532c-26.737,29.07-32.532,72.197-14.42,107.33c22.874,44.407,58.522,79.98,102.988,102.892 c34.521,17.786,78.853,11.801,107.406-14.401l11.59-10.633c1.874-1.722,6.731-3.52,10.748-1.473l99.144,50.93 c12.891,6.617,20.885,19.66,20.885,34.043C554.604,478.297,550.665,487.821,543.531,495.051z"/>
      </g>
    </g>
  </g>
  <g style="opacity: 0.75;"/>
  <g style="opacity: 0.75;"/>
  <g style="opacity: 0.75;"/>
  <g style="opacity: 0.75;"/>
  <g style="opacity: 0.75;"/>
  <g style="opacity: 0.75;"/>
  <g style="opacity: 0.75;"/>
  <g style="opacity: 0.75;"/>
  <g style="opacity: 0.75;"/>
  <g style="opacity: 0.75;"/>
  <g style="opacity: 0.75;"/>
  <g style="opacity: 0.75;"/>
  <g style="opacity: 0.75;"/>
  <g style="opacity: 0.75;"/>
  <g style="opacity: 0.75;"/>
</svg>