<?xml version="1.0" encoding="utf-8"?>
<svg version="1.1" id="Capa_1" x="0px" y="0px" width="57.799px" height="57.799px" viewBox="0 0 57.799 57.799" style="enable-background:new 0 0 57.799 57.799;" xmlns="http://www.w3.org/2000/svg">
  <g style="opacity: 0.75;">
    <path d="M42.434,21.487h-7.465v-1.839h7.465V21.487z M42.434,29.818v-1.839h-7.465v1.839H42.434z M22.716,19.648H15.25v1.839h7.466 V19.648z M34.969,21.487h-1.84v6.492h1.84V21.487z M42.434,36.312h1.84v-6.492h-1.84V36.312z M34.969,38.15h7.465v-1.839h-7.465 V38.15z M15.25,38.15h7.466v-1.839H15.25V38.15z M22.733,27.868h-7.466v1.839h7.466v-1.728h1.839v-6.492h-1.839V27.868z M22.733,36.312h1.839v-6.492h-1.839V36.312z M9.305,27.979h1.839v-6.492H9.305V27.979z M1.839,19.648v1.839h7.466v-1.839H1.839z M0,29.819v6.492h1.839v-6.492H0z M1.839,38.15h7.466v-1.839H1.839V38.15z M1.839,29.818h7.466v-1.839H1.839V29.818z M55.959,21.487v6.492h1.84v-6.492H55.959z M46.654,21.487v6.492h1.839v-6.492H46.654z M55.959,19.648h-7.466v1.839h7.466V19.648z M48.493,29.818h7.466v-1.839h-7.466V29.818z M55.959,36.312h1.84v-6.492h-1.84V36.312z M27.935,23.326h1.838v-1.839h-1.838V23.326 z M27.935,36.311h1.838v-1.84h-1.838V36.311z"/>
  </g>
  <g style="opacity: 0.75;"/>
  <g style="opacity: 0.75;"/>
  <g style="opacity: 0.75;"/>
  <g style="opacity: 0.75;"/>
  <g style="opacity: 0.75;"/>
  <g style="opacity: 0.75;"/>
  <g style="opacity: 0.75;"/>
  <g style="opacity: 0.75;"/>
  <g style="opacity: 0.75;"/>
  <g style="opacity: 0.75;"/>
  <g style="opacity: 0.75;"/>
  <g style="opacity: 0.75;"/>
  <g style="opacity: 0.75;"/>
  <g style="opacity: 0.75;"/>
  <g style="opacity: 0.75;"/>
</svg>