<?xml version="1.0" encoding="utf-8"?>
<svg height="512pt" viewBox="0 0 512 512.00025" width="512pt" xmlns="http://www.w3.org/2000/svg">
  <path d="m0 105c0 5.683594 3.210938 10.875 8.292969 13.417969l51.707031 25.851562v42.460938l-51.707031 25.851562c-5.082031 2.542969-8.292969 7.734375-8.292969 13.417969v60c0 5.683594 3.210938 10.875 8.292969 13.417969l51.707031 25.851562v41.460938l-51.707031 25.851562c-5.082031 2.542969-8.292969 7.734375-8.292969 13.417969v60c0 5.609375 3.128906 10.75 8.113281 13.328125l60 31c2.160157 1.113281 4.523438 1.671875 6.886719 1.671875s4.726562-.558594 6.886719-1.671875l60-31c4.984375-2.578125 8.113281-7.71875 8.113281-13.328125v-60c0-5.683594-3.210938-10.875-8.292969-13.417969l-51.707031-25.851562v-41.460938l51.707031-25.851562c5.082031-2.542969 8.292969-7.734375 8.292969-13.417969v-60c0-5.683594-3.210938-10.875-8.292969-13.417969l-51.707031-25.851562v-42.460938l51.707031-25.851562c5.082031-2.542969 8.292969-7.734375 8.292969-13.417969v-60c0-5.683594-3.210938-10.875-8.292969-13.417969l-60-30c-4.222656-2.109375-9.191406-2.109375-13.414062 0l-60 30c-5.082031 2.542969-8.292969 7.734375-8.292969 13.417969zm120 351.867188-45 23.25-45-23.25v-41.597657l45-22.5 45 22.5zm0-180.136719-45 22.5-45-22.5v-41.460938l45-22.5 45 22.5zm-90-222.460938 45-22.5 45 22.5v41.460938l-45 22.5-45-22.5zm0 0" style="opacity: 0.75;"/>
  <path d="m497 30h-302c-8.285156 0-15 6.714844-15 15s6.714844 15 15 15h302c8.285156 0 15-6.714844 15-15s-6.714844-15-15-15zm0 0" style="opacity: 0.75;"/>
  <path d="m195 120h151c8.285156 0 15-6.714844 15-15s-6.714844-15-15-15h-151c-8.285156 0-15 6.714844-15 15s6.714844 15 15 15zm0 0" style="opacity: 0.75;"/>
  <path d="m195 301h151c8.285156 0 15-6.714844 15-15s-6.714844-15-15-15h-151c-8.285156 0-15 6.714844-15 15s6.714844 15 15 15zm0 0" style="opacity: 0.75;"/>
  <path d="m346 481c8.285156 0 15-6.714844 15-15s-6.714844-15-15-15h-151c-8.285156 0-15 6.714844-15 15s6.714844 15 15 15zm0 0" style="opacity: 0.75;"/>
  <path d="m497 211h-302c-8.285156 0-15 6.714844-15 15s6.714844 15 15 15h302c8.285156 0 15-6.714844 15-15s-6.714844-15-15-15zm0 0" style="opacity: 0.75;"/>
  <path d="m497 391h-302c-8.285156 0-15 6.714844-15 15s6.714844 15 15 15h302c8.285156 0 15-6.714844 15-15s-6.714844-15-15-15zm0 0" style="opacity: 0.75;"/>
  <path d="m89.972656 75c0 8.285156-6.71875 15-15 15-8.285156 0-15-6.714844-15-15s6.714844-15 15-15c8.28125 0 15 6.714844 15 15zm0 0" style="opacity: 0.75;"/>
  <path d="m89.972656 256c0 8.285156-6.71875 15-15 15-8.285156 0-15-6.714844-15-15s6.714844-15 15-15c8.28125 0 15 6.714844 15 15zm0 0" style="opacity: 0.75;"/>
  <path d="m89.972656 436c0 8.285156-6.71875 15-15 15-8.285156 0-15-6.714844-15-15s6.714844-15 15-15c8.28125 0 15 6.714844 15 15zm0 0" style="opacity: 0.75;"/>
</svg>