<?xml version="1.0" encoding="utf-8"?>
<svg height="937.5pt" version="1.1" viewBox="0 0 937.5 937.5" width="937.5pt" xmlns="http://www.w3.org/2000/svg">
  <g id="surface1" style="opacity: 0.75;">
    <path d="M 546.875 46.875 C 546.875 20.992188 525.882812 0 500 0 L 437.5 0 C 411.617188 0 390.625 20.992188 390.625 46.875 L 390.625 62.5 L 312.5 62.5 C 286.617188 62.5 265.625 83.492188 265.625 109.375 L 265.625 453.125 L 156.25 453.125 L 156.25 437.5 C 156.25 411.617188 135.257812 390.625 109.375 390.625 L 46.875 390.625 C 20.992188 390.625 0 411.617188 0 437.5 L 0 500 C 0 525.882812 20.992188 546.875 46.875 546.875 L 109.375 546.875 C 135.257812 546.875 156.25 525.882812 156.25 500 L 156.25 484.375 L 265.625 484.375 L 265.625 828.125 C 265.625 854.007812 286.617188 875 312.5 875 L 390.625 875 L 390.625 890.625 C 390.625 916.507812 411.617188 937.5 437.5 937.5 L 500 937.5 C 525.882812 937.5 546.875 916.507812 546.875 890.625 L 546.875 875 L 593.75 875 L 593.75 843.75 L 546.875 843.75 L 546.875 828.125 C 546.875 802.242188 525.882812 781.25 500 781.25 L 437.5 781.25 C 411.617188 781.25 390.625 802.242188 390.625 828.125 L 390.625 843.75 L 312.5 843.75 C 303.867188 843.75 296.875 836.757812 296.875 828.125 L 296.875 484.375 L 390.625 484.375 L 390.625 500 C 390.625 525.882812 411.617188 546.875 437.5 546.875 L 500 546.875 C 525.882812 546.875 546.875 525.882812 546.875 500 L 546.875 484.375 L 593.75 484.375 L 593.75 453.125 L 546.875 453.125 L 546.875 437.5 C 546.875 411.617188 525.882812 390.625 500 390.625 L 437.5 390.625 C 411.617188 390.625 390.625 411.617188 390.625 437.5 L 390.625 453.125 L 296.875 453.125 L 296.875 109.375 C 296.875 100.742188 303.867188 93.75 312.5 93.75 L 390.625 93.75 L 390.625 109.375 C 390.625 135.257812 411.617188 156.25 437.5 156.25 L 500 156.25 C 525.882812 156.25 546.875 135.257812 546.875 109.375 L 546.875 93.75 L 593.75 93.75 L 593.75 62.5 L 546.875 62.5 Z M 125 500 C 125 508.632812 118.007812 515.625 109.375 515.625 L 46.875 515.625 C 38.242188 515.625 31.25 508.632812 31.25 500 L 31.25 437.5 C 31.25 428.867188 38.242188 421.875 46.875 421.875 L 109.375 421.875 C 118.007812 421.875 125 428.867188 125 437.5 Z M 421.875 828.125 C 421.875 819.492188 428.867188 812.5 437.5 812.5 L 500 812.5 C 508.632812 812.5 515.625 819.492188 515.625 828.125 L 515.625 890.625 C 515.625 899.257812 508.632812 906.25 500 906.25 L 437.5 906.25 C 428.867188 906.25 421.875 899.257812 421.875 890.625 Z M 421.875 437.5 C 421.875 428.867188 428.867188 421.875 437.5 421.875 L 500 421.875 C 508.632812 421.875 515.625 428.867188 515.625 437.5 L 515.625 500 C 515.625 508.632812 508.632812 515.625 500 515.625 L 437.5 515.625 C 428.867188 515.625 421.875 508.632812 421.875 500 Z M 515.625 109.375 C 515.625 118.007812 508.632812 125 500 125 L 437.5 125 C 428.867188 125 421.875 118.007812 421.875 109.375 L 421.875 46.875 C 421.875 38.242188 428.867188 31.25 437.5 31.25 L 500 31.25 C 508.632812 31.25 515.625 38.242188 515.625 46.875 Z M 515.625 109.375 " style=" stroke:none;fill-rule:nonzero;fill:rgb(0%,0%,0%);fill-opacity:1;"/>
    <path d="M 890.625 0 L 828.125 0 C 802.242188 0 781.25 20.992188 781.25 46.875 L 781.25 62.5 L 750 62.5 L 750 93.75 L 781.25 93.75 L 781.25 109.375 C 781.25 135.257812 802.242188 156.25 828.125 156.25 L 890.625 156.25 C 916.507812 156.25 937.5 135.257812 937.5 109.375 L 937.5 46.875 C 937.5 20.992188 916.507812 0 890.625 0 Z M 906.25 109.375 C 906.25 118.007812 899.257812 125 890.625 125 L 828.125 125 C 819.492188 125 812.5 118.007812 812.5 109.375 L 812.5 46.875 C 812.5 38.242188 819.492188 31.25 828.125 31.25 L 890.625 31.25 C 899.257812 31.25 906.25 38.242188 906.25 46.875 Z M 906.25 109.375 " style=" stroke:none;fill-rule:nonzero;fill:rgb(0%,0%,0%);fill-opacity:1;"/>
    <path d="M 890.625 781.25 L 828.125 781.25 C 802.242188 781.25 781.25 802.242188 781.25 828.125 L 781.25 843.75 L 750 843.75 L 750 875 L 781.25 875 L 781.25 890.625 C 781.25 916.507812 802.242188 937.5 828.125 937.5 L 890.625 937.5 C 916.507812 937.5 937.5 916.507812 937.5 890.625 L 937.5 828.125 C 937.5 802.242188 916.507812 781.25 890.625 781.25 Z M 906.25 890.625 C 906.25 899.257812 899.257812 906.25 890.625 906.25 L 828.125 906.25 C 819.492188 906.25 812.5 899.257812 812.5 890.625 L 812.5 828.125 C 812.5 819.492188 819.492188 812.5 828.125 812.5 L 890.625 812.5 C 899.257812 812.5 906.25 819.492188 906.25 828.125 Z M 906.25 890.625 " style=" stroke:none;fill-rule:nonzero;fill:rgb(0%,0%,0%);fill-opacity:1;"/>
    <path d="M 890.625 390.625 L 828.125 390.625 C 802.242188 390.625 781.25 411.617188 781.25 437.5 L 781.25 453.125 L 750 453.125 L 750 484.375 L 781.25 484.375 L 781.25 500 C 781.25 525.882812 802.242188 546.875 828.125 546.875 L 890.625 546.875 C 916.507812 546.875 937.5 525.882812 937.5 500 L 937.5 437.5 C 937.5 411.617188 916.507812 390.625 890.625 390.625 Z M 906.25 500 C 906.25 508.632812 899.257812 515.625 890.625 515.625 L 828.125 515.625 C 819.492188 515.625 812.5 508.632812 812.5 500 L 812.5 437.5 C 812.5 428.867188 819.492188 421.875 828.125 421.875 L 890.625 421.875 C 899.257812 421.875 906.25 428.867188 906.25 437.5 Z M 906.25 500 " style=" stroke:none;fill-rule:nonzero;fill:rgb(0%,0%,0%);fill-opacity:1;"/>
    <path d="M 609.375 62.5 L 640.625 62.5 L 640.625 93.75 L 609.375 93.75 Z M 609.375 62.5 " style=" stroke:none;fill-rule:nonzero;fill:rgb(0%,0%,0%);fill-opacity:1;"/>
    <path d="M 656.25 62.5 L 687.5 62.5 L 687.5 93.75 L 656.25 93.75 Z M 656.25 62.5 " style=" stroke:none;fill-rule:nonzero;fill:rgb(0%,0%,0%);fill-opacity:1;"/>
    <path d="M 703.125 62.5 L 734.375 62.5 L 734.375 93.75 L 703.125 93.75 Z M 703.125 62.5 " style=" stroke:none;fill-rule:nonzero;fill:rgb(0%,0%,0%);fill-opacity:1;"/>
    <path d="M 609.375 453.125 L 640.625 453.125 L 640.625 484.375 L 609.375 484.375 Z M 609.375 453.125 " style=" stroke:none;fill-rule:nonzero;fill:rgb(0%,0%,0%);fill-opacity:1;"/>
    <path d="M 656.25 453.125 L 687.5 453.125 L 687.5 484.375 L 656.25 484.375 Z M 656.25 453.125 " style=" stroke:none;fill-rule:nonzero;fill:rgb(0%,0%,0%);fill-opacity:1;"/>
    <path d="M 703.125 453.125 L 734.375 453.125 L 734.375 484.375 L 703.125 484.375 Z M 703.125 453.125 " style=" stroke:none;fill-rule:nonzero;fill:rgb(0%,0%,0%);fill-opacity:1;"/>
    <path d="M 609.375 843.75 L 640.625 843.75 L 640.625 875 L 609.375 875 Z M 609.375 843.75 " style=" stroke:none;fill-rule:nonzero;fill:rgb(0%,0%,0%);fill-opacity:1;"/>
    <path d="M 656.25 843.75 L 687.5 843.75 L 687.5 875 L 656.25 875 Z M 656.25 843.75 " style=" stroke:none;fill-rule:nonzero;fill:rgb(0%,0%,0%);fill-opacity:1;"/>
    <path d="M 703.125 843.75 L 734.375 843.75 L 734.375 875 L 703.125 875 Z M 703.125 843.75 " style=" stroke:none;fill-rule:nonzero;fill:rgb(0%,0%,0%);fill-opacity:1;"/>
  </g>
</svg>