<?xml version="1.0" encoding="utf-8"?>
<svg height="512pt" viewBox="0 -114 512 512" width="512pt" xmlns="http://www.w3.org/2000/svg">
  <path d="m509.996094 105.03125c0-4.144531-3.355469-7.5-7.5-7.5h-293.980469c-4.144531 0-7.5 3.355469-7.5 7.5 0 4.140625 3.355469 7.5 7.5 7.5h293.980469c4.144531 0 7.5-3.359375 7.5-7.5zm0 0" style="opacity: 0.75;"/>
  <path d="m172.5 97.53125h-64.4375c-43.042969 0-78.0625 35.019531-78.0625 78.0625s35.019531 78.0625 78.0625 78.0625h394.433594c4.144531 0 7.5-3.355469 7.5-7.5s-3.355469-7.5-7.5-7.5h-394.433594c-34.773438 0-63.0625-28.289062-63.0625-63.0625s28.289062-63.0625 63.0625-63.0625h64.4375c4.140625 0 7.5-3.359375 7.5-7.5 0-4.144531-3.359375-7.5-7.5-7.5zm0 0" style="opacity: 0.75;"/>
  <path d="m504.5 268.65625h-98.628906c-4.144532 0-7.5 3.355469-7.5 7.5s3.355468 7.5 7.5 7.5h98.628906c4.144531 0 7.5-3.355469 7.5-7.5s-3.355469-7.5-7.5-7.5zm0 0" style="opacity: 0.75;"/>
  <path d="m504.5 67.527344h-396.4375c-59.585938 0-108.0625 48.480468-108.0625 108.066406s48.476562 108.0625 108.0625 108.0625h265.148438c4.140624 0 7.5-3.355469 7.5-7.5s-3.359376-7.5-7.5-7.5h-265.148438c-51.316406 0-93.0625-41.75-93.0625-93.0625 0-51.316406 41.746094-93.0625 93.0625-93.0625h396.4375c4.144531 0 7.5-3.359375 7.5-7.5 0-4.144531-3.355469-7.503906-7.5-7.503906zm0 0" style="opacity: 0.75;"/>
  <path d="m504.5 0h-38.171875c-4.140625 0-7.5 3.355469-7.5 7.5s3.359375 7.5 7.5 7.5h30.671875v25.957031h-91.496094v-25.957031h28.167969c4.140625 0 7.5-3.355469 7.5-7.5s-3.359375-7.5-7.5-7.5h-150.121094c-4.140625 0-7.5 3.355469-7.5 7.5v40.957031c0 4.144531 3.359375 7.5 7.5 7.5h220.949219c4.144531 0 7.5-3.355469 7.5-7.5v-40.957031c0-4.144531-3.355469-7.5-7.5-7.5zm-151.5 40.957031h-25.4375v-25.957031h25.4375zm-61.949219-25.957031h21.511719v25.957031h-21.511719zm76.949219 25.957031v-25.957031h22.503906v25.957031zm0 0" style="opacity: 0.75;"/>
  <path d="m172.5 55.957031h5.332031c4.144531 0 7.5-3.355469 7.5-7.5s-3.355469-7.5-7.5-7.5h-5.332031c-4.140625 0-7.5 3.355469-7.5 7.5s3.359375 7.5 7.5 7.5zm0 0" style="opacity: 0.75;"/>
  <path d="m172.5 35.476562h88c4.144531 0 7.5-3.355468 7.5-7.5 0-4.140624-3.355469-7.5-7.5-7.5h-88c-4.140625 0-7.5 3.359376-7.5 7.5 0 4.144532 3.359375 7.5 7.5 7.5zm0 0" style="opacity: 0.75;"/>
  <path d="m172.5 15h62c4.140625 0 7.5-3.355469 7.5-7.5s-3.359375-7.5-7.5-7.5h-62c-4.140625 0-7.5 3.355469-7.5 7.5s3.359375 7.5 7.5 7.5zm0 0" style="opacity: 0.75;"/>
  <path d="m254.5 15h6c4.144531 0 7.5-3.355469 7.5-7.5s-3.355469-7.5-7.5-7.5h-6c-4.140625 0-7.5 3.355469-7.5 7.5s3.359375 7.5 7.5 7.5zm0 0" style="opacity: 0.75;"/>
  <path d="m260.515625 40.957031h-62c-4.144531 0-7.5 3.355469-7.5 7.5s3.355469 7.5 7.5 7.5h62c4.140625 0 7.5-3.355469 7.5-7.5s-3.359375-7.5-7.5-7.5zm0 0" style="opacity: 0.75;"/>
  <path d="m264.898438 153.109375-9.242188 27.640625-7.441406-8.703125c-1.425782-1.664063-3.507813-2.625-5.699219-2.625-2.195313 0-4.277344.960937-5.703125 2.625l-7.441406 8.703125-9.242188-27.640625c-1.316406-3.925781-5.566406-6.050781-9.492187-4.730469-3.929688 1.3125-6.046875 5.5625-4.734375 9.488282l13.445312 40.207031c.859375 2.5625 3.027344 4.46875 5.679688 4.984375 2.652344.519531 5.378906-.4375 7.132812-2.488282l10.351563-12.105468 10.351562 12.105468c1.441407 1.683594 3.53125 2.625 5.703125 2.625.472656 0 .953125-.042968 1.433594-.136718 2.652344-.519532 4.820312-2.421875 5.679688-4.984375l13.445312-40.207031c1.3125-3.929688-.808594-8.175782-4.734375-9.492188-3.921875-1.3125-8.175781.808594-9.492187 4.734375zm0 0" style="opacity: 0.75;"/>
  <path d="m347.921875 153.109375-9.246094 27.640625-7.441406-8.703125c-1.421875-1.664063-3.507813-2.625-5.699219-2.625s-4.273437.960937-5.699218 2.625l-7.441407 8.703125-9.242187-27.640625c-1.3125-3.925781-5.566406-6.050781-9.492188-4.730469-3.929687 1.3125-6.046875 5.5625-4.734375 9.488282l13.449219 40.207031c.855469 2.5625 3.023438 4.46875 5.679688 4.984375 2.652343.519531 5.378906-.4375 7.132812-2.488282l10.351562-12.105468 10.351563 12.105468c1.4375 1.683594 3.53125 2.625 5.699219 2.625.476562 0 .957031-.042968 1.433594-.136718 2.652343-.519532 4.824218-2.421875 5.679687-4.984375l13.445313-40.207031c1.316406-3.929688-.804688-8.175782-4.734376-9.492188-3.929687-1.3125-8.179687.808594-9.492187 4.734375zm0 0" style="opacity: 0.75;"/>
  <path d="m430.941406 153.109375-9.242187 27.640625-7.441407-8.703125c-1.425781-1.664063-3.507812-2.625-5.699218-2.625-2.195313 0-4.277344.960937-5.703125 2.625l-7.441407 8.703125-9.242187-27.640625c-1.3125-3.925781-5.566406-6.046875-9.492187-4.734375-3.925782 1.316406-6.046876 5.5625-4.734376 9.492188l13.449219 40.207031c.855469 2.5625 3.027344 4.464843 5.679688 4.984375 2.652343.519531 5.378906-.4375 7.132812-2.488282l10.351563-12.105468 10.351562 12.105468c1.441406 1.683594 3.53125 2.625 5.699219 2.625.476563 0 .957031-.042968 1.4375-.136718 2.648437-.519532 4.820313-2.421875 5.679687-4.984375l13.445313-40.207031c1.3125-3.929688-.808594-8.175782-4.734375-9.492188-3.929688-1.3125-8.183594.808594-9.496094 4.734375zm0 0" style="opacity: 0.75;"/>
  <path d="m155.335938 152.945312c-2.929688-2.929687-7.679688-2.929687-10.605469 0l-34.6875 34.6875c-2.929688 2.929688-2.929688 7.679688 0 10.605469 1.464843 1.464844 3.382812 2.199219 5.300781 2.199219 1.921875 0 3.839844-.734375 5.304688-2.199219l34.6875-34.6875c2.929687-2.929687 2.929687-7.675781 0-10.605469zm0 0" style="opacity: 0.75;"/>
  <path d="m146.703125 200.4375c1.917969 0 3.835937-.734375 5.300781-2.199219l34.6875-34.6875c2.929688-2.929687 2.929688-7.675781 0-10.605469-2.925781-2.929687-7.675781-2.929687-10.605468 0l-34.6875 34.6875c-2.929688 2.929688-2.929688 7.679688 0 10.605469 1.464843 1.464844 3.382812 2.199219 5.304687 2.199219zm0 0" style="opacity: 0.75;"/>
  <path d="m457.488281 194.3125v.503906c0 4.144532 3.355469 7.5 7.5 7.5s7.5-3.355468 7.5-7.5v-.503906c0-4.144531-3.355469-7.5-7.5-7.5s-7.5 3.355469-7.5 7.5zm0 0" style="opacity: 0.75;"/>
</svg>